<svg width="12" height="12" viewBox="0 0 12 12" fill="none" xmlns="http://www.w3.org/2000/svg">
<path d="M6.00003 0C6.19894 0 6.3897 0.0790176 6.53036 0.21967C6.67101 0.360322 6.75003 0.551088 6.75003 0.75V4.701L10.1715 2.7255C10.2569 2.67548 10.3512 2.64283 10.4492 2.62943C10.5472 2.61603 10.6469 2.62214 10.7425 2.64743C10.8382 2.67271 10.9278 2.71665 11.0064 2.77674C11.085 2.83682 11.1509 2.91185 11.2003 2.9975C11.2498 3.08316 11.2818 3.17776 11.2946 3.27584C11.3073 3.37393 11.3005 3.47356 11.2746 3.56902C11.2487 3.66447 11.2042 3.75386 11.1436 3.83203C11.083 3.9102 11.0075 3.97561 10.9215 4.0245L7.50003 6L10.9215 7.9755C11.0075 8.02439 11.083 8.0898 11.1436 8.16797C11.2042 8.24614 11.2487 8.33553 11.2746 8.43098C11.3005 8.52643 11.3073 8.62607 11.2946 8.72416C11.2818 8.82224 11.2498 8.91684 11.2003 9.0025C11.1509 9.08815 11.085 9.16318 11.0064 9.22326C10.9278 9.28335 10.8382 9.32729 10.7425 9.35257C10.6469 9.37786 10.5472 9.38397 10.4492 9.37057C10.3512 9.35717 10.2569 9.32452 10.1715 9.2745L6.75003 7.299V11.25C6.75003 11.4489 6.67101 11.6397 6.53036 11.7803C6.3897 11.921 6.19894 12 6.00003 12C5.80111 12 5.61035 11.921 5.4697 11.7803C5.32904 11.6397 5.25003 11.4489 5.25003 11.25V7.299L1.82853 9.2745C1.7432 9.32452 1.64882 9.35717 1.55082 9.37057C1.45282 9.38397 1.35314 9.37786 1.25752 9.35257C1.16189 9.32729 1.07221 9.28335 0.993643 9.22326C0.915072 9.16318 0.849161 9.08815 0.799704 9.0025C0.750248 8.91684 0.718224 8.82224 0.705475 8.72416C0.692726 8.62607 0.699504 8.52643 0.72542 8.43098C0.751335 8.33553 0.795875 8.24614 0.856477 8.16797C0.917078 8.0898 0.992543 8.02439 1.07853 7.9755L4.50003 6L1.07853 4.0245C0.907672 3.92434 0.783371 3.76066 0.732749 3.56919C0.682127 3.37772 0.709294 3.174 0.808321 3.00248C0.907349 2.83096 1.0702 2.70558 1.26133 2.65369C1.45246 2.6018 1.65636 2.62761 1.82853 2.7255L5.25003 4.701V0.75C5.25003 0.551088 5.32904 0.360322 5.4697 0.21967C5.61035 0.0790176 5.80111 0 6.00003 0Z" fill="#FF4F4F"/>
</svg>
