<svg width="40" height="40" viewBox="0 0 40 40" fill="none" xmlns="http://www.w3.org/2000/svg">
<path d="M30 20C24.5 20 20 24.5 20 30C20 35.5 24.5 40 30 40C35.5 40 40 35.5 40 30C40 24.5 35.5 20 30 20ZM34.625 31C34.375 31.25 34.125 31.375 33.75 31.375C33.375 31.375 33.125 31.25 32.875 31L31.25 29.375V35C31.25 35.75 30.75 36.25 30 36.25C29.25 36.25 28.75 35.75 28.75 35V29.375L27.125 31C26.625 31.5 25.875 31.5 25.375 31C24.875 30.5 24.875 29.75 25.375 29.25L29.125 25.375C29.375 25.125 29.625 25 30 25C30.375 25 30.625 25.125 30.875 25.375L34.625 29.25C35.125 29.75 35.125 30.5 34.625 31Z" fill="#757575"/>
<path d="M21.25 3.25V10H28L21.25 3.25Z" fill="#757575"/>
<path d="M25.625 12.5H20C19.25 12.5 18.75 12 18.75 11.25V2.5H5C4.25 2.5 3.75 3 3.75 3.75V36.25C3.75 37 4.25 37.5 5 37.5H20C18.375 35.375 17.5 32.875 17.5 30C17.5 23.5 22.5 18.25 28.75 17.625V15.625C28.75 13.875 27.375 12.5 25.625 12.5Z" fill="#757575"/>
</svg>
