<svg width="248" height="102" viewBox="0 0 248 102" fill="none" xmlns="http://www.w3.org/2000/svg">
<path d="M178.751 89.2299H180.091V98.5199H178.751V89.2299ZM172.861 89.9699H174.181V92.2199H176.091V89.9699H177.411V96.3599H172.861V89.9699ZM174.181 93.2499V95.2899H176.091V93.2499H174.181ZM181.99 89.7099H183.31V90.8799H185.07V89.7099H186.37V94.0399H181.99V89.7099ZM183.31 91.8899V92.9799H185.07V91.8899H183.31ZM186.07 91.3499H188.32V92.4199H186.07V91.3499ZM188.02 89.2399H189.35V94.3099H188.02V89.2399ZM183.2 94.6999H184.52V95.5299H188.03V94.6999H189.35V98.3899H183.2V94.6999ZM184.52 96.5499V97.3299H188.03V96.5499H184.52ZM195.47 92.1299H197.91V93.1999H195.47V92.1299ZM192.95 89.9499H194.03V91.2899C194.03 93.6199 193.24 95.7699 191.5 96.6399L190.67 95.5699C192.25 94.8399 192.95 93.0499 192.95 91.2899V89.9499ZM193.23 89.9499H194.29V91.2899C194.29 93.0499 194.96 94.7399 196.49 95.4199L195.7 96.4799C193.96 95.6399 193.23 93.5999 193.23 91.2899V89.9499ZM197.25 89.2299H198.57V98.5199H197.25V89.2299ZM209.083 89.2399H210.353V98.4999H209.083V89.2399ZM206.373 92.6099H207.613V93.7799H206.373V92.6099ZM207.243 89.4199H208.493V98.0699H207.243V89.4199ZM202.383 90.2799H206.593V91.3399H202.383V90.2799ZM202.363 96.3999L202.223 95.3199C203.383 95.3199 205.333 95.2899 206.733 95.0999L206.823 96.0599C205.383 96.3699 203.503 96.3999 202.363 96.3999ZM202.953 90.9599H204.143V95.5999H202.953V90.9599ZM204.813 90.9599H206.013V95.5999H204.813V90.9599ZM217.863 89.2299H219.203V98.5199H217.863V89.2299ZM214.213 89.8799C215.613 89.8799 216.643 91.1599 216.643 93.1799C216.643 95.2199 215.613 96.4999 214.213 96.4999C212.813 96.4999 211.783 95.2199 211.783 93.1799C211.783 91.1599 212.813 89.8799 214.213 89.8799ZM214.213 91.0899C213.523 91.0899 213.053 91.8199 213.053 93.1799C213.053 94.5599 213.523 95.2999 214.213 95.2999C214.903 95.2999 215.363 94.5599 215.363 93.1799C215.363 91.8199 214.903 91.0899 214.213 91.0899ZM222.942 90.6999H224.002V91.7399C224.002 93.8799 223.132 95.9699 221.392 96.7599L220.642 95.7099C222.192 95.0199 222.942 93.3099 222.942 91.7399V90.6999ZM223.242 90.6999H224.292V91.7399C224.292 93.2399 225.032 94.8399 226.582 95.4799L225.862 96.5299C224.102 95.7699 223.242 93.7999 223.242 91.7399V90.6999ZM221.012 90.1299H226.202V91.2199H221.012V90.1299ZM227.062 89.2399H228.402V98.4999H227.062V89.2399Z" fill="black"/>
<rect x="151" y="0.146484" width="96" height="80.7805" rx="3" stroke="#B3B3B3" stroke-width="0.2"/>
<path d="M159.195 8.34155H214.219V38.7806H159.195V8.34155Z" fill="#D9D9D9"/>
<path d="M159.195 54.6587C159.195 53.0018 160.538 51.6587 162.195 51.6587H211.219C212.876 51.6587 214.219 53.0018 214.219 54.6587V72.0733C214.219 73.7302 212.876 75.0733 211.219 75.0733H162.195C160.538 75.0733 159.195 73.7302 159.195 72.0733V54.6587Z" fill="#F5F5F5"/>
<path d="M218.902 11.3416C218.902 9.6847 220.245 8.34155 221.902 8.34155H236.976C238.632 8.34155 239.976 9.6847 239.976 11.3416V72.0733C239.976 73.7301 238.632 75.0733 236.976 75.0733H221.902C220.245 75.0733 218.902 73.7301 218.902 72.0733V11.3416Z" fill="#F5F5F5"/>
<path d="M163.896 42.7664H164.531V47.3964H163.896V42.7664ZM163.291 44.5514H164.061V45.0814H163.291V44.5514ZM162.861 42.8464H163.481V47.1764H162.861V42.8464ZM160.746 43.2764H161.411V45.9514H160.746V43.2764ZM160.746 45.7014H161.066C161.511 45.7014 162.031 45.6764 162.606 45.5664L162.671 46.1364C162.066 46.2464 161.536 46.2714 161.066 46.2714H160.746V45.7014ZM169.498 42.7614H170.168V47.4064H169.498V42.7614ZM166.553 43.1314H167.213V44.2564H168.168V43.1314H168.828V46.3264H166.553V43.1314ZM167.213 44.7714V45.7914H168.168V44.7714H167.213ZM171.117 43.0014H171.777V43.5864H172.657V43.0014H173.307V45.1664H171.117V43.0014ZM171.777 44.0914V44.6364H172.657V44.0914H171.777ZM173.157 43.8214H174.282V44.3564H173.157V43.8214ZM174.132 42.7664H174.797V45.3014H174.132V42.7664ZM171.722 45.4964H172.382V45.9114H174.137V45.4964H174.797V47.3414H171.722V45.4964ZM172.382 46.4214V46.8114H174.137V46.4214H172.382ZM177.857 44.2114H179.077V44.7464H177.857V44.2114ZM176.597 43.1214H177.137V43.7914C177.137 44.9564 176.742 46.0314 175.872 46.4664L175.457 45.9314C176.247 45.5664 176.597 44.6714 176.597 43.7914V43.1214ZM176.737 43.1214H177.267V43.7914C177.267 44.6714 177.602 45.5164 178.367 45.8564L177.972 46.3864C177.102 45.9664 176.737 44.9464 176.737 43.7914V43.1214ZM178.747 42.7614H179.407V47.4064H178.747V42.7614ZM184.624 42.7664H185.254V47.3964H184.624V42.7664ZM183.099 44.3464H183.864V44.8864H183.099V44.3464ZM183.689 42.8414H184.309V47.1864H183.689V42.8414ZM182.099 43.5214H182.599V43.9964C182.599 45.0364 182.314 46.0714 181.579 46.5314L181.184 46.0414C181.864 45.6164 182.099 44.7864 182.099 43.9964V43.5214ZM182.249 43.5214H182.744V43.9964C182.744 44.7664 182.974 45.5464 183.644 45.9364L183.254 46.4214C182.519 45.9864 182.249 45.0164 182.249 43.9964V43.5214ZM181.359 43.2314H183.424V43.7664H181.359V43.2314ZM186.393 42.9464H189.538V44.5864H186.393V42.9464ZM188.883 43.4664H187.043V44.0664H188.883V43.4664ZM185.878 45.0214H190.063V45.5464H185.878V45.0214ZM187.633 44.4664H188.298V45.1714H187.633V44.4664ZM186.343 45.8814H189.558V47.3964H188.893V46.4064H186.343V45.8814Z" fill="black"/>
<path d="M51.0129 72.5836H52.3529V81.8736H51.0129V72.5836ZM45.1229 73.3236H46.4429V75.5736H48.3529V73.3236H49.6729V79.7136H45.1229V73.3236ZM46.4429 76.6036V78.6436H48.3529V76.6036H46.4429ZM54.2521 73.0636H55.5721V74.2336H57.3321V73.0636H58.6321V77.3936H54.2521V73.0636ZM55.5721 75.2436V76.3336H57.3321V75.2436H55.5721ZM58.3321 74.7036H60.5821V75.7736H58.3321V74.7036ZM60.2821 72.5936H61.6121V77.6636H60.2821V72.5936ZM55.4621 78.0536H56.7821V78.8836H60.2921V78.0536H61.6121V81.7436H55.4621V78.0536ZM56.7821 79.9036V80.6836H60.2921V79.9036H56.7821ZM67.7313 75.4836H70.1713V76.5536H67.7313V75.4836ZM65.2113 73.3036H66.2913V74.6436C66.2913 76.9736 65.5013 79.1236 63.7613 79.9936L62.9313 78.9236C64.5113 78.1936 65.2113 76.4036 65.2113 74.6436V73.3036ZM65.4913 73.3036H66.5513V74.6436C66.5513 76.4036 67.2213 78.0936 68.7513 78.7736L67.9613 79.8336C66.2213 78.9936 65.4913 76.9536 65.4913 74.6436V73.3036ZM69.5113 72.5836H70.8313V81.8736H69.5113V72.5836ZM78.075 73.4836H79.375C79.375 76.3436 78.695 78.7236 75.245 80.4736L74.535 79.4636C77.415 78.0136 78.075 76.2436 78.075 73.6436V73.4836ZM75.105 73.4836H78.865V74.5336H75.105V73.4836ZM78.105 75.7536V76.7736L74.785 77.0936L74.625 75.9536L78.105 75.7536ZM80.495 72.5836H81.835V81.8436H80.495V72.5836ZM81.485 76.1236H83.115V77.2136H81.485V76.1236ZM84.7542 76.8636H91.2642V77.9236H84.7542V76.8636ZM83.7842 79.6536H92.1642V80.7436H83.7842V79.6536ZM84.7542 73.3536H91.1942V74.4336H86.0742V77.3036H84.7542V73.3536Z" fill="black"/>
<rect x="0.836426" y="22" width="135.164" height="42.3818" rx="3" stroke="#B3B3B3" stroke-width="0.2"/>
<path d="M7.70923 28.8728H61.5456V58.6546H7.70923V28.8728Z" fill="#D9D9D9"/>
<path d="M66.1274 43.3271C66.1274 41.6703 67.4706 40.3271 69.1274 40.3271H128.418C130.075 40.3271 131.418 41.6703 131.418 43.3271V55.6544C131.418 57.3113 130.075 58.6544 128.418 58.6544H69.1274C67.4706 58.6544 66.1274 57.3113 66.1274 55.6544V43.3271Z" fill="#F5F5F5"/>
<path d="M69.6574 30.6878H70.2924V35.3178H69.6574V30.6878ZM69.0524 32.4728H69.8224V33.0028H69.0524V32.4728ZM68.6224 30.7678H69.2424V35.0978H68.6224V30.7678ZM66.5074 31.1978H67.1724V33.8728H66.5074V31.1978ZM66.5074 33.6228H66.8274C67.2724 33.6228 67.7924 33.5978 68.3674 33.4878L68.4324 34.0578C67.8274 34.1678 67.2974 34.1928 66.8274 34.1928H66.5074V33.6228ZM75.2593 30.6828H75.9293V35.3278H75.2593V30.6828ZM72.3143 31.0528H72.9743V32.1778H73.9293V31.0528H74.5893V34.2478H72.3143V31.0528ZM72.9743 32.6928V33.7128H73.9293V32.6928H72.9743ZM76.8789 30.9228H77.5389V31.5078H78.4189V30.9228H79.0689V33.0878H76.8789V30.9228ZM77.5389 32.0128V32.5578H78.4189V32.0128H77.5389ZM78.9189 31.7428H80.0439V32.2778H78.9189V31.7428ZM79.8939 30.6878H80.5589V33.2228H79.8939V30.6878ZM77.4839 33.4178H78.1439V33.8328H79.8989V33.4178H80.5589V35.2628H77.4839V33.4178ZM78.1439 34.3428V34.7328H79.8989V34.3428H78.1439ZM83.6185 32.1328H84.8385V32.6678H83.6185V32.1328ZM82.3585 31.0428H82.8985V31.7128C82.8985 32.8778 82.5035 33.9528 81.6335 34.3878L81.2185 33.8528C82.0085 33.4878 82.3585 32.5928 82.3585 31.7128V31.0428ZM82.4985 31.0428H83.0285V31.7128C83.0285 32.5928 83.3635 33.4378 84.1285 33.7778L83.7335 34.3078C82.8635 33.8878 82.4985 32.8678 82.4985 31.7128V31.0428ZM84.5085 30.6828H85.1685V35.3278H84.5085V30.6828ZM90.3853 30.6878H91.0153V35.3178H90.3853V30.6878ZM88.8603 32.2678H89.6253V32.8078H88.8603V32.2678ZM89.4503 30.7628H90.0703V35.1078H89.4503V30.7628ZM87.8603 31.4428H88.3603V31.9178C88.3603 32.9578 88.0753 33.9928 87.3403 34.4528L86.9453 33.9628C87.6253 33.5378 87.8603 32.7078 87.8603 31.9178V31.4428ZM88.0103 31.4428H88.5053V31.9178C88.5053 32.6878 88.7353 33.4678 89.4053 33.8578L89.0153 34.3428C88.2803 33.9078 88.0103 32.9378 88.0103 31.9178V31.4428ZM87.1203 31.1528H89.1853V31.6878H87.1203V31.1528ZM92.1549 30.8678H95.2999V32.5078H92.1549V30.8678ZM94.6449 31.3878H92.8049V31.9878H94.6449V31.3878ZM91.6399 32.9428H95.8249V33.4678H91.6399V32.9428ZM93.3949 32.3878H94.0599V33.0928H93.3949V32.3878ZM92.1049 33.8028H95.3199V35.3178H94.6549V34.3278H92.1049V33.8028Z" fill="black"/>
</svg>
