<svg width="113" height="105" viewBox="0 0 113 105" fill="none" xmlns="http://www.w3.org/2000/svg">
<path d="M34.4951 93.62H35.8351V102.91H34.4951V93.62ZM28.6051 94.36H29.9251V96.61H31.8351V94.36H33.1551V100.75H28.6051V94.36ZM29.9251 97.64V99.68H31.8351V97.64H29.9251ZM37.7343 94.1H39.0543V95.27H40.8143V94.1H42.1143V98.43H37.7343V94.1ZM39.0543 96.28V97.37H40.8143V96.28H39.0543ZM41.8143 95.74H44.0643V96.81H41.8143V95.74ZM43.7643 93.63H45.0943V98.7H43.7643V93.63ZM38.9443 99.09H40.2643V99.92H43.7743V99.09H45.0943V102.78H38.9443V99.09ZM40.2643 100.94V101.72H43.7743V100.94H40.2643ZM51.2136 96.52H53.6536V97.59H51.2136V96.52ZM48.6936 94.34H49.7736V95.68C49.7736 98.01 48.9836 100.16 47.2436 101.03L46.4136 99.96C47.9936 99.23 48.6936 97.44 48.6936 95.68V94.34ZM48.9736 94.34H50.0336V95.68C50.0336 97.44 50.7036 99.13 52.2336 99.81L51.4436 100.87C49.7036 100.03 48.9736 97.99 48.9736 95.68V94.34ZM52.9936 93.62H54.3136V102.91H52.9936V93.62ZM64.8272 93.63H66.0972V102.89H64.8272V93.63ZM62.1172 97H63.3572V98.17H62.1172V97ZM62.9872 93.81H64.2372V102.46H62.9872V93.81ZM58.1272 94.67H62.3372V95.73H58.1272V94.67ZM58.1072 100.79L57.9672 99.71C59.1272 99.71 61.0772 99.68 62.4772 99.49L62.5672 100.45C61.1272 100.76 59.2472 100.79 58.1072 100.79ZM58.6972 95.35H59.8872V99.99H58.6972V95.35ZM60.5572 95.35H61.7572V99.99H60.5572V95.35ZM73.6064 93.62H74.9464V102.91H73.6064V93.62ZM69.9564 94.27C71.3564 94.27 72.3864 95.55 72.3864 97.57C72.3864 99.61 71.3564 100.89 69.9564 100.89C68.5564 100.89 67.5264 99.61 67.5264 97.57C67.5264 95.55 68.5564 94.27 69.9564 94.27ZM69.9564 95.48C69.2664 95.48 68.7964 96.21 68.7964 97.57C68.7964 98.95 69.2664 99.69 69.9564 99.69C70.6464 99.69 71.1064 98.95 71.1064 97.57C71.1064 96.21 70.6464 95.48 69.9564 95.48ZM78.6857 95.09H79.7457V96.13C79.7457 98.27 78.8757 100.36 77.1357 101.15L76.3857 100.1C77.9357 99.41 78.6857 97.7 78.6857 96.13V95.09ZM78.9857 95.09H80.0357V96.13C80.0357 97.63 80.7757 99.23 82.3257 99.87L81.6057 100.92C79.8457 100.16 78.9857 98.19 78.9857 96.13V95.09ZM76.7557 94.52H81.9457V95.61H76.7557V94.52ZM82.8057 93.63H84.1457V102.89H82.8057V93.63Z" fill="black"/>
<rect x="1" y="1" width="111" height="85" rx="3" stroke="#B3B3B3" stroke-width="0.2"/>
<path d="M5 8H57V38H5V8Z" fill="#D9D9D9"/>
<path d="M66 23C66 21.3431 67.3431 20 69 20H98C99.6569 20 101 21.3431 101 23V76C101 77.6569 99.6569 79 98 79H69C67.3431 79 66 77.6569 66 76V23Z" fill="#F3F3F3"/>
<path d="M5 53C5 51.3431 6.34315 50 8 50H54C55.6569 50 57 51.3431 57 53V76C57 77.6569 55.6569 79 54 79H8C6.34314 79 5 77.6569 5 76V53Z" fill="#F3F3F3"/>
<path d="M5 43C5 41.3431 6.34315 40 8 40H54C55.6569 40 57 41.3431 57 43V44C57 45.6569 55.6569 47 54 47H8C6.34314 47 5 45.6569 5 44V43Z" fill="#F3F3F3"/>
<path d="M69.7741 9.815H70.4091V14.445H69.7741V9.815ZM69.1691 11.6H69.9391V12.13H69.1691V11.6ZM68.7391 9.895H69.3591V14.225H68.7391V9.895ZM66.6241 10.325H67.2891V13H66.6241V10.325ZM66.6241 12.75H66.9441C67.3891 12.75 67.9091 12.725 68.4841 12.615L68.5491 13.185C67.9441 13.295 67.4141 13.32 66.9441 13.32H66.6241V12.75ZM75.376 9.81H76.046V14.455H75.376V9.81ZM72.431 10.18H73.091V11.305H74.046V10.18H74.706V13.375H72.431V10.18ZM73.091 11.82V12.84H74.046V11.82H73.091ZM76.9956 10.05H77.6556V10.635H78.5356V10.05H79.1856V12.215H76.9956V10.05ZM77.6556 11.14V11.685H78.5356V11.14H77.6556ZM79.0356 10.87H80.1606V11.405H79.0356V10.87ZM80.0106 9.815H80.6756V12.35H80.0106V9.815ZM77.6006 12.545H78.2606V12.96H80.0156V12.545H80.6756V14.39H77.6006V12.545ZM78.2606 13.47V13.86H80.0156V13.47H78.2606ZM83.7352 11.26H84.9552V11.795H83.7352V11.26ZM82.4752 10.17H83.0152V10.84C83.0152 12.005 82.6202 13.08 81.7502 13.515L81.3352 12.98C82.1252 12.615 82.4752 11.72 82.4752 10.84V10.17ZM82.6152 10.17H83.1452V10.84C83.1452 11.72 83.4802 12.565 84.2452 12.905L83.8502 13.435C82.9802 13.015 82.6152 11.995 82.6152 10.84V10.17ZM84.6252 9.81H85.2852V14.455H84.6252V9.81ZM87.162 13.36H91.352V13.905H87.162V13.36ZM88.902 12.33H89.562V13.505H88.902V12.33ZM88.877 10.07H89.457V10.405C89.457 11.39 88.742 12.26 87.532 12.48L87.257 11.925C88.312 11.755 88.877 11.045 88.877 10.405V10.07ZM89.007 10.07H89.587V10.405C89.587 11.06 90.152 11.755 91.212 11.925L90.937 12.48C89.722 12.255 89.007 11.405 89.007 10.405V10.07ZM95.1016 9.815H95.7316V14.445H95.1016V9.815ZM93.5766 11.395H94.3416V11.935H93.5766V11.395ZM94.1666 9.89H94.7866V14.235H94.1666V9.89ZM92.5766 10.57H93.0766V11.045C93.0766 12.085 92.7916 13.12 92.0566 13.58L91.6616 13.09C92.3416 12.665 92.5766 11.835 92.5766 11.045V10.57ZM92.7266 10.57H93.2216V11.045C93.2216 11.815 93.4516 12.595 94.1216 12.985L93.7316 13.47C92.9966 13.035 92.7266 12.065 92.7266 11.045V10.57ZM91.8366 10.28H93.9016V10.815H91.8366V10.28ZM96.8713 9.995H100.016V11.635H96.8713V9.995ZM99.3613 10.515H97.5213V11.115H99.3613V10.515ZM96.3563 12.07H100.541V12.595H96.3563V12.07ZM98.1113 11.515H98.7763V12.22H98.1113V11.515ZM96.8213 12.93H100.036V14.445H99.3713V13.455H96.8213V12.93Z" fill="black"/>
</svg>
