<svg width="152" height="71" viewBox="0 0 152 71" fill="none" xmlns="http://www.w3.org/2000/svg">
<path d="M58.6855 57.8021H60.0255V67.0921H58.6855V57.8021ZM52.7955 58.5421H54.1155V60.7921H56.0255V58.5421H57.3455V64.9321H52.7955V58.5421ZM54.1155 61.8221V63.8621H56.0255V61.8221H54.1155ZM61.9247 58.2821H63.2447V59.4521H65.0047V58.2821H66.3047V62.6121H61.9247V58.2821ZM63.2447 60.4621V61.5521H65.0047V60.4621H63.2447ZM66.0047 59.9221H68.2547V60.9921H66.0047V59.9221ZM67.9547 57.8121H69.2847V62.8821H67.9547V57.8121ZM63.1347 63.2721H64.4547V64.1021H67.9647V63.2721H69.2847V66.9621H63.1347V63.2721ZM64.4547 65.1221V65.9021H67.9647V65.1221H64.4547ZM75.4039 60.7021H77.8439V61.7721H75.4039V60.7021ZM72.8839 58.5221H73.9639V59.8621C73.9639 62.1921 73.1739 64.3421 71.4339 65.2121L70.6039 64.1421C72.1839 63.4121 72.8839 61.6221 72.8839 59.8621V58.5221ZM73.1639 58.5221H74.2239V59.8621C74.2239 61.6221 74.8939 63.3121 76.4239 63.9921L75.6339 65.0521C73.8939 64.2121 73.1639 62.1721 73.1639 59.8621V58.5221ZM77.1839 57.8021H78.5039V67.0921H77.1839V57.8021ZM85.7476 58.7021H87.0476C87.0476 61.5621 86.3676 63.9421 82.9176 65.6921L82.2076 64.6821C85.0876 63.2321 85.7476 61.4621 85.7476 58.8621V58.7021ZM82.7776 58.7021H86.5376V59.7521H82.7776V58.7021ZM85.7776 60.9721V61.9921L82.4576 62.3121L82.2976 61.1721L85.7776 60.9721ZM88.1676 57.8021H89.5076V67.0621H88.1676V57.8021ZM89.1576 61.3421H90.7876V62.4321H89.1576V61.3421ZM92.4268 62.0821H98.9368V63.1421H92.4268V62.0821ZM91.4568 64.8721H99.8368V65.9621H91.4568V64.8721ZM92.4268 58.5721H98.8668V59.6521H93.7468V62.5221H92.4268V58.5721Z" fill="black"/>
<rect x="1" y="1" width="150.182" height="47.0909" rx="3" stroke="#B3B3B3" stroke-width="0.2"/>
<path d="M8.63647 8.63623H68.4547V41.7271H8.63647V8.63623Z" fill="#D9D9D9"/>
<path d="M73.4041 11.7778C73.4041 10.121 74.7472 8.77783 76.4041 8.77783H142.626C144.283 8.77783 145.626 10.121 145.626 11.7778V12.4445C145.626 14.1014 144.283 15.4445 142.626 15.4445H76.4041C74.7472 15.4445 73.4041 14.1014 73.4041 12.4445V11.7778Z" fill="#F5F5F5"/>
<path d="M77.0757 22.7037H77.7107V27.3337H77.0757V22.7037ZM76.4707 24.4887H77.2407V25.0187H76.4707V24.4887ZM76.0407 22.7837H76.6607V27.1137H76.0407V22.7837ZM73.9257 23.2137H74.5907V25.8887H73.9257V23.2137ZM73.9257 25.6387H74.2457C74.6907 25.6387 75.2107 25.6137 75.7857 25.5037L75.8507 26.0737C75.2457 26.1837 74.7157 26.2087 74.2457 26.2087H73.9257V25.6387ZM82.6775 22.6987H83.3475V27.3437H82.6775V22.6987ZM79.7325 23.0687H80.3925V24.1937H81.3475V23.0687H82.0075V26.2637H79.7325V23.0687ZM80.3925 24.7087V25.7287H81.3475V24.7087H80.3925ZM84.2971 22.9387H84.9571V23.5237H85.8371V22.9387H86.4871V25.1037H84.2971V22.9387ZM84.9571 24.0287V24.5737H85.8371V24.0287H84.9571ZM86.3371 23.7587H87.4621V24.2937H86.3371V23.7587ZM87.3121 22.7037H87.9771V25.2387H87.3121V22.7037ZM84.9021 25.4337H85.5621V25.8487H87.3171V25.4337H87.9771V27.2787H84.9021V25.4337ZM85.5621 26.3587V26.7487H87.3171V26.3587H85.5621ZM91.0367 24.1487H92.2567V24.6837H91.0367V24.1487ZM89.7767 23.0587H90.3167V23.7287C90.3167 24.8937 89.9217 25.9687 89.0517 26.4037L88.6367 25.8687C89.4267 25.5037 89.7767 24.6087 89.7767 23.7287V23.0587ZM89.9167 23.0587H90.4467V23.7287C90.4467 24.6087 90.7817 25.4537 91.5467 25.7937L91.1517 26.3237C90.2817 25.9037 89.9167 24.8837 89.9167 23.7287V23.0587ZM91.9267 22.6987H92.5867V27.3437H91.9267V22.6987ZM95.0385 23.2637H95.4985V23.5187C95.4985 24.1487 95.2935 24.7987 94.6685 25.0737L94.3635 24.5987C94.8485 24.3737 95.0385 23.9237 95.0385 23.5187V23.2637ZM95.2085 23.2637H95.6535V23.5187C95.6535 23.9037 95.7835 24.3787 96.2135 24.6387L95.9585 25.1237C95.3435 24.8137 95.2085 24.1037 95.2085 23.5187V23.2637ZM96.2635 23.2637H96.7085V23.5187C96.7085 24.1087 96.5735 24.8137 95.9585 25.1237L95.7035 24.6387C96.1285 24.3787 96.2635 23.9137 96.2635 23.5187V23.2637ZM96.4235 23.2637H96.8885V23.5187C96.8885 23.9337 97.0735 24.3787 97.5635 24.5987L97.2535 25.0737C96.6285 24.7987 96.4235 24.1537 96.4235 23.5187V23.2637ZM94.5385 22.9187H95.8885V23.4437H94.5385V22.9187ZM96.0385 22.9187H97.3485V23.4437H96.0385V22.9187ZM96.6835 25.3237H97.2835V25.8137H97.6535V25.3237H98.2435V27.3037H96.6835V25.3237ZM97.2835 26.2937V26.8037H97.6535V26.2937H97.2835ZM97.5785 22.7037H98.2435V25.1237H97.5785V22.7037ZM97.8335 23.5937H98.7085V24.1387H97.8335V23.5937ZM94.9485 25.3637H96.4385V26.5387H95.5985V27.0437H94.9585V26.0887H95.7985V25.8437H94.9485V25.3637ZM94.9585 26.8187H95.2235C95.8285 26.8187 96.1335 26.8187 96.5185 26.7437L96.5735 27.2237C96.1635 27.2987 95.8485 27.3037 95.2235 27.3037H94.9585V26.8187ZM99.0582 25.0637H103.243V25.5937H99.0582V25.0637ZM99.5632 26.7237H102.773V27.2537H99.5632V26.7237ZM99.5632 25.9037H100.228V26.8937H99.5632V25.9037ZM101.153 22.8387C102.158 22.8387 102.828 23.2037 102.828 23.7937C102.828 24.3837 102.158 24.7487 101.153 24.7487C100.143 24.7487 99.4782 24.3837 99.4782 23.7937C99.4782 23.2037 100.143 22.8387 101.153 22.8387ZM101.153 23.3687C100.528 23.3687 100.163 23.5137 100.163 23.7937C100.163 24.0787 100.528 24.2187 101.153 24.2187C101.778 24.2187 102.143 24.0787 102.143 23.7937C102.143 23.5137 101.778 23.3687 101.153 23.3687ZM104.82 26.2487H109.01V26.7937H104.82V26.2487ZM106.56 25.2187H107.22V26.3937H106.56V25.2187ZM106.535 22.9587H107.115V23.2937C107.115 24.2787 106.4 25.1487 105.19 25.3687L104.915 24.8137C105.97 24.6437 106.535 23.9337 106.535 23.2937V22.9587ZM106.665 22.9587H107.245V23.2937C107.245 23.9487 107.81 24.6437 108.87 24.8137L108.595 25.3687C107.38 25.1437 106.665 24.2937 106.665 23.2937V22.9587ZM112.745 22.7037H113.38V27.3337H112.745V22.7037ZM112.16 24.4487H112.925V24.9787H112.16V24.4487ZM110.78 23.2687H111.415C111.415 24.5737 111.035 25.6287 109.74 26.3837L109.355 25.9237C110.41 25.2987 110.78 24.5187 110.78 23.4087V23.2687ZM109.59 23.2687H110.975V23.8037H109.59V23.2687ZM111.72 22.8237H112.34V27.1337H111.72V22.8237Z" fill="black"/>
</svg>
