<svg width="24" height="24" viewBox="0 0 24 24" fill="none" xmlns="http://www.w3.org/2000/svg">
<rect x="1" y="1" width="22" height="22" rx="11" stroke="white" stroke-width="2"/>
<path d="M18.6666 19.5V17.8333C18.6666 16.9493 18.3154 16.1014 17.6903 15.4763C17.0652 14.8512 16.2173 14.5 15.3333 14.5H8.66659C7.78253 14.5 6.93468 14.8512 6.30956 15.4763C5.68444 16.1014 5.33325 16.9493 5.33325 17.8333V19.5M15.3333 7.83333C15.3333 9.67428 13.8409 11.1667 11.9999 11.1667C10.159 11.1667 8.66659 9.67428 8.66659 7.83333C8.66659 5.99238 10.159 4.5 11.9999 4.5C13.8409 4.5 15.3333 5.99238 15.3333 7.83333Z" stroke="white" stroke-width="2" stroke-linecap="round" stroke-linejoin="round"/>
</svg>
