<svg width="1440" height="501" viewBox="0 0 1440 501" fill="none" xmlns="http://www.w3.org/2000/svg">
<g clip-path="url(#clip0_878_27327)">
<rect width="1440" height="501" fill="white"/>
<path d="M57 295.274L457.675 -193L819.338 103.779C796.866 119.335 785.382 130.386 770.118 148.987C754.854 167.588 746.285 183.043 735.776 214.185L505.477 -21.4872L403.313 103.012L604.117 246.214L562.141 297.367L520.166 348.519L341.391 178.473L231.595 312.272L503.863 482.991L417.137 590.801L57 295.274Z" fill="black"/>
<path d="M1003.85 303.009L892.511 343.535L915.138 443.063L966.591 379.831L1056.94 275.958L1003.85 303.009Z" fill="#00A8CC"/>
<path fill-rule="evenodd" clip-rule="evenodd" d="M900.353 117.43L654 374.817L928.495 637.545L1196.46 357.579L1078.14 244.335L1068.68 235.275L892.511 343.535L1003.85 303.009L1056.94 275.958L1055.91 352.837L1053.01 488.503L807.513 487.141L802.18 248.424L897.048 244.051L1023.4 235.204L900.353 117.43Z" fill="#00A8CC"/>
<ellipse cx="1223.66" cy="115.046" rx="143.759" ry="137.152" transform="rotate(8.10296 1223.66 115.046)" fill="#FFD700"/>
<rect width="1440" height="501" fill="black" fill-opacity="0.62"/>
</g>
<defs>
<clipPath id="clip0_878_27327">
<rect width="1440" height="501" fill="white"/>
</clipPath>
</defs>
</svg>
