<svg width="1440" height="375" viewBox="0 0 1440 375" fill="none" xmlns="http://www.w3.org/2000/svg">
<g clip-path="url(#clip0_878_27327)">
<rect width="1440" height="375" fill="white"/>
<path d="M493 238.681L780.767 -112L1040.51 101.148C1024.38 112.321 1016.13 120.257 1005.17 133.617C994.203 146.976 988.048 158.076 980.501 180.442L815.099 11.1814L741.724 100.597L885.942 203.446L855.795 240.184L825.648 276.922L697.251 154.794L618.395 250.889L813.939 373.501L751.652 450.93L493 238.681Z" fill="black"/>
<path d="M1203.26 213.236L1123.3 242.343L1139.55 313.824L1176.5 268.41L1241.4 193.808L1203.26 213.236Z" fill="#00A8CC"/>
<path fill-rule="evenodd" clip-rule="evenodd" d="M1128.93 79.9524L952 264.81L1149.14 453.502L1341.6 252.429L1256.62 171.096L1249.82 164.59L1123.3 242.343L1203.26 213.236L1241.4 193.808L1240.65 249.023L1238.57 346.459L1062.25 345.481L1058.42 174.033L1126.56 170.892L1217.31 164.539L1128.93 79.9524Z" fill="#00A8CC"/>
<ellipse cx="1372.1" cy="78.2401" rx="103.248" ry="98.5034" transform="rotate(8.10296 1372.1 78.2401)" fill="#FFD700"/>
<rect width="1440" height="375" fill="black" fill-opacity="0.62"/>
</g>
<defs>
<clipPath id="clip0_878_27327">
<rect width="1440" height="375" fill="white"/>
</clipPath>
</defs>
</svg>
