<svg width="119" height="120" viewBox="0 0 119 120" fill="none" xmlns="http://www.w3.org/2000/svg">
<g clip-path="url(#clip0_1_185)">
<path d="M89.25 60C72.8875 60 59.5 73.3875 59.5 89.75C59.5 106.112 72.8875 119.5 89.25 119.5C105.612 119.5 119 106.112 119 89.75C119 73.3875 105.612 60 89.25 60ZM103.009 92.725C102.266 93.4687 101.522 93.8406 100.406 93.8406C99.2906 93.8406 98.5469 93.4687 97.8031 92.725L92.9688 87.8906V104.625C92.9688 106.856 91.4813 108.344 89.25 108.344C87.0187 108.344 85.5312 106.856 85.5312 104.625V87.8906L80.6969 92.725C79.2094 94.2125 76.9781 94.2125 75.4906 92.725C74.0031 91.2375 74.0031 89.0062 75.4906 87.5187L86.6469 75.9906C87.3906 75.2469 88.1344 74.875 89.25 74.875C90.3656 74.875 91.1094 75.2469 91.8531 75.9906L103.009 87.5187C104.497 89.0062 104.497 91.2375 103.009 92.725Z" fill="#525252"/>
<path d="M63.2188 10.1687V30.25H83.3L63.2188 10.1687Z" fill="#525252"/>
<path d="M76.2344 37.6875H59.5C57.2687 37.6875 55.7812 36.2 55.7812 33.9688V7.9375H14.875C12.6437 7.9375 11.1562 9.425 11.1562 11.6562V108.344C11.1562 110.575 12.6437 112.062 14.875 112.062H59.5C54.6656 105.741 52.0625 98.3031 52.0625 89.75C52.0625 70.4125 66.9375 54.7938 85.5312 52.9344V46.9844C85.5312 41.7781 81.4406 37.6875 76.2344 37.6875Z" fill="#525252"/>
</g>
<defs>
<clipPath id="clip0_1_185">
<rect width="119" height="119" fill="white" transform="translate(0 0.5)"/>
</clipPath>
</defs>
</svg>
