<svg width="36" height="36" viewBox="0 0 36 36" fill="none" xmlns="http://www.w3.org/2000/svg">
<rect width="36" height="36" rx="18" fill="#F5F6F6"/>
<path d="M13.0002 16.3334C12.0835 16.3334 11.3335 17.0834 11.3335 18C11.3335 18.9167 12.0835 19.6667 13.0002 19.6667C13.9168 19.6667 14.6668 18.9167 14.6668 18C14.6668 17.0834 13.9168 16.3334 13.0002 16.3334ZM23.0002 16.3334C22.0835 16.3334 21.3335 17.0834 21.3335 18C21.3335 18.9167 22.0835 19.6667 23.0002 19.6667C23.9168 19.6667 24.6668 18.9167 24.6668 18C24.6668 17.0834 23.9168 16.3334 23.0002 16.3334ZM18.0002 16.3334C17.0835 16.3334 16.3335 17.0834 16.3335 18C16.3335 18.9167 17.0835 19.6667 18.0002 19.6667C18.9168 19.6667 19.6668 18.9167 19.6668 18C19.6668 17.0834 18.9168 16.3334 18.0002 16.3334Z" fill="#595E62"/>
</svg>
