<svg width="54" height="55" viewBox="0 0 54 55" fill="none" xmlns="http://www.w3.org/2000/svg">
<rect x="1" y="1.46191" width="52" height="52" rx="26" stroke="black" stroke-width="2"/>
<path d="M43.6666 46.2119V42.0452C43.6666 39.8351 42.7886 37.7155 41.2258 36.1527C39.663 34.5899 37.5434 33.7119 35.3333 33.7119H18.6666C16.4564 33.7119 14.3368 34.5899 12.774 36.1527C11.2112 37.7155 10.3333 39.8351 10.3333 42.0452V46.2119M35.3333 17.0452C35.3333 21.6476 31.6023 25.3786 26.9999 25.3786C22.3975 25.3786 18.6666 21.6476 18.6666 17.0452C18.6666 12.4429 22.3975 8.71191 26.9999 8.71191C31.6023 8.71191 35.3333 12.4429 35.3333 17.0452Z" stroke="#1E1E1E" stroke-width="2" stroke-linecap="round" stroke-linejoin="round"/>
</svg>
