<svg width="46" height="47" viewBox="0 0 46 47" fill="none" xmlns="http://www.w3.org/2000/svg">
<path d="M0 46.1927V6.86548H22.6775C22.3138 8.50184 22.2233 9.48729 22.2233 10.9855C22.2233 12.4837 22.3775 13.566 22.9412 15.48L7.065 13.2327V23.2603L18.9927 22.2218V26.3418V30.4618L7.065 29.3382V40.1148L22.5166 37.5782L22.5819 46.1927H0Z" fill="#00A8CC"/>
<path d="M40.5303 36.0801L34.428 33.0838L31.1974 37.9529L35.8638 37.5783L43.761 37.2038L40.5303 36.0801Z" fill="black"/>
<path fill-rule="evenodd" clip-rule="evenodd" d="M44.1199 24.4692H23.6592V46.1928H45.9147V36.8292V36.0801L34.428 33.0838L40.5303 36.0801L43.761 37.2038L40.5303 40.2001L34.787 45.4438L25.095 35.2501L34.787 25.5929L38.7355 29.3383L44.1199 34.2074V24.4692Z" fill="black"/>
<circle cx="34.6323" cy="11" r="11" fill="#FFD700"/>
</svg>
