<svg width="30" height="27" viewBox="0 0 30 27" fill="none" xmlns="http://www.w3.org/2000/svg">
<path d="M7.96595 0.0195312C5.91107 0.0195312 3.8503 0.809094 2.30959 2.3736C-0.771841 5.50247 -0.767888 10.4672 2.30959 13.5982L14.1937 25.6896C14.2964 25.7936 14.421 25.8766 14.5596 25.9334C14.6983 25.9902 14.8479 26.0195 14.9993 26.0195C15.1506 26.0195 15.3003 25.9902 15.4389 25.9334C15.5776 25.8766 15.7022 25.7936 15.8049 25.6896C19.7682 21.6651 23.7256 17.6335 27.6889 13.6089C30.7704 10.48 30.7703 5.51331 27.6889 2.3843C24.6075 -0.744745 19.4691 -0.744779 16.3876 2.3843L15.005 3.78604L13.6109 2.3736C12.0702 0.809094 10.0208 0.0195312 7.96595 0.0195312ZM7.96595 2.02049C9.41331 2.02049 10.8568 2.60408 11.9997 3.76464L14.2051 6.001C14.3078 6.10505 14.4324 6.18807 14.571 6.24486C14.7097 6.30164 14.8594 6.33096 15.0107 6.33096C15.162 6.33096 15.3117 6.30164 15.4503 6.24486C15.589 6.18807 15.7136 6.10505 15.8163 6.001L18.0103 3.77534C20.2961 1.45418 23.792 1.45425 26.0777 3.77534C28.3635 6.09643 28.3635 9.89694 26.0777 12.2179C22.3849 15.9679 18.6979 19.7247 15.005 23.4746L3.93222 12.2072C1.64772 9.88294 1.64649 6.08556 3.93222 3.76464C5.07511 2.60408 6.5186 2.02049 7.96595 2.02049Z" fill="black"/>
</svg>
