<svg width="26" height="18" viewBox="0 0 26 18" fill="none" xmlns="http://www.w3.org/2000/svg">
<path fill-rule="evenodd" clip-rule="evenodd" d="M12.7511 0.329468C7.50668 0.329784 2.66737 3.48715 0.0963452 8.58503C0.0332288 8.71016 4.97008e-05 8.8513 5.5794e-08 8.99487C-4.95893e-05 9.13844 0.0330319 9.27961 0.0960617 9.4048C2.66453 14.5068 7.50469 17.6679 12.7508 17.6705C12.7505 17.6705 12.7511 17.6705 12.7508 17.6705C17.9951 17.6683 22.8347 14.509 25.4041 9.40985C25.4671 9.2847 25.5003 9.14354 25.5003 8.99997C25.5003 8.8564 25.4671 8.71524 25.4041 8.59009C22.8347 3.49094 17.9954 0.331997 12.7511 0.329468C12.7512 0.329468 12.7509 0.329468 12.7511 0.329468ZM12.7508 2.00252C17.314 2.00442 21.5288 4.66669 23.8816 9.00013C21.5288 13.3332 17.3143 15.9952 12.7516 15.9974C8.18699 15.9955 3.97102 13.3313 1.61855 8.99539C3.97272 4.66353 8.18813 2.00284 12.7508 2.00252ZM12.7502 3.92881C10.2478 3.92881 8.20315 6.20918 8.20315 9.00013C8.20315 11.7908 10.2478 14.0711 12.7502 14.0711C15.2523 14.0711 17.297 11.7908 17.297 9.00013C17.297 6.20918 15.2523 3.92881 12.7502 3.92881ZM12.7502 5.60186C14.4416 5.60186 15.7969 7.11336 15.7969 9.00013C15.7969 10.8866 14.4416 12.3981 12.7502 12.3981C11.0585 12.3981 9.70324 10.8866 9.70324 9.00013C9.70324 7.11336 11.0585 5.60186 12.7502 5.60186Z" fill="#757575"/>
</svg>
