<svg width="32" height="28" viewBox="0 0 32 28" fill="none" xmlns="http://www.w3.org/2000/svg">
<path d="M8.49702 0C6.30514 0 4.10698 0.842201 2.46357 2.51101C-0.823297 5.84847 -0.81908 11.1442 2.46357 14.4839L15.1399 27.3814C15.2495 27.4924 15.3824 27.5809 15.5303 27.6415C15.6781 27.7021 15.8378 27.7333 15.9992 27.7333C16.1606 27.7333 16.3203 27.7021 16.4682 27.6415C16.6161 27.5809 16.749 27.4924 16.8585 27.3814C21.0861 23.0886 25.3073 18.7883 29.5349 14.4954C32.8217 11.1579 32.8217 5.86003 29.5349 2.52242C26.248 -0.815228 20.767 -0.815264 17.4802 2.52242L16.0053 4.01761L14.5183 2.51101C12.8748 0.842201 10.6889 0 8.49702 0ZM8.49702 2.13436C10.0409 2.13436 11.5806 2.75685 12.7997 3.99478L15.1521 6.38024C15.2617 6.49122 15.3946 6.57978 15.5425 6.64035C15.6903 6.70091 15.85 6.73219 16.0114 6.73219C16.1728 6.73219 16.3325 6.70091 16.4804 6.64035C16.6282 6.57978 16.7612 6.49122 16.8707 6.38024L19.211 4.0062C21.6492 1.53029 25.3781 1.53036 27.8163 4.0062C30.2544 6.48203 30.2544 10.5359 27.8163 13.0116C23.8772 17.0115 19.9444 21.0189 16.0053 25.0188L4.19437 13.0002C1.75757 10.521 1.75626 6.47043 4.19437 3.99478C5.41345 2.75685 6.95317 2.13436 8.49702 2.13436Z" fill="white"/>
</svg>
