<svg width="25" height="24" viewBox="0 0 25 24" fill="none" xmlns="http://www.w3.org/2000/svg">
<rect x="1.44897" y="1" width="22" height="22" rx="11" stroke="black" stroke-width="2"/>
<path d="M19.1156 19.5V17.8333C19.1156 16.9493 18.7644 16.1014 18.1392 15.4763C17.5141 14.8512 16.6663 14.5 15.7822 14.5H9.11556C8.2315 14.5 7.38366 14.8512 6.75854 15.4763C6.13342 16.1014 5.78223 16.9493 5.78223 17.8333V19.5M15.7822 7.83333C15.7822 9.67428 14.2898 11.1667 12.4489 11.1667C10.6079 11.1667 9.11556 9.67428 9.11556 7.83333C9.11556 5.99238 10.6079 4.5 12.4489 4.5C14.2898 4.5 15.7822 5.99238 15.7822 7.83333Z" stroke="#1E1E1E" stroke-width="2" stroke-linecap="round" stroke-linejoin="round"/>
</svg>
