<svg width="301" height="225" viewBox="0 0 301 225" fill="none" xmlns="http://www.w3.org/2000/svg">
<rect x="300.315" y="0.416992" width="224.065" height="300.004" transform="rotate(90.0796 300.315 0.416992)" fill="white"/>
<path d="M82.5988 184.11C80.1067 184.11 77.8496 183.538 75.8275 182.393C73.8196 181.236 72.2247 179.538 71.0427 177.299C69.875 175.048 69.2911 172.288 69.2911 169.019C69.2911 165.661 69.8964 162.869 71.1068 160.644C72.3172 158.405 73.9264 156.733 75.9343 155.626C77.9564 154.507 80.1708 153.947 82.5775 153.947C84.4145 153.947 85.9453 154.227 87.17 154.787C88.4089 155.334 89.4057 156.02 90.1605 156.847C90.9295 157.661 91.5133 158.462 91.9121 159.251H92.1897L87.17 113.479L99.1738 113.956V183.633H90.0964L92.2966 178.94H91.9121C91.4848 179.754 90.8796 180.561 90.0964 181.363C89.3274 182.151 88.3235 182.806 87.0846 183.328C85.8599 183.849 84.3646 184.11 82.5988 184.11ZM85.4825 177.642C86.9493 177.642 88.1882 177.286 89.1993 176.574C90.2246 175.849 91.0078 174.838 91.5489 173.541C92.1043 172.243 92.382 170.723 92.382 168.981C92.382 167.238 92.1114 165.725 91.5703 164.44C91.0292 163.156 90.2459 162.164 89.2206 161.464C88.1953 160.765 86.9493 160.415 85.4825 160.415C83.9873 160.415 82.727 160.777 81.7017 161.502C80.6764 162.227 79.9003 163.232 79.3734 164.517C78.8465 165.801 78.583 167.289 78.583 168.981C78.583 170.685 78.8465 172.192 79.3734 173.502C79.9145 174.8 80.6906 175.817 81.7017 176.555C82.727 177.28 83.9873 177.642 85.4825 177.642Z" fill="#757575"/>
<path d="M62.2566 184.626L64.8776 159.728L62.2566 154.194H69.1849L66.5639 159.728L69.1849 184.626H62.2566ZM65.7384 150.55C64.3855 150.55 63.225 150.149 62.2566 149.348C61.3025 148.534 60.8254 147.561 60.8254 146.429C60.8254 145.31 61.3025 144.349 62.2566 143.548C63.225 142.734 64.3855 142.327 65.7384 142.327C67.0912 142.327 68.2447 142.734 69.1988 143.548C70.1672 144.349 70.6513 145.31 70.6513 146.429C70.6513 147.561 70.1672 148.534 69.1988 149.348C68.2447 150.149 67.0912 150.55 65.7384 150.55Z" fill="#757575"/>
<path d="M33.9958 174.574L43.3791 175.067C41.4483 176.283 41.8826 176.688 42.2851 177.241C42.686 177.807 43.8216 178.185 44.547 178.566C45.8386 178.781 46.0936 178.807 47.1407 178.913C48.5414 179.055 49.8147 178.832 50.8445 178.399C51.8727 177.979 52.4423 177.333 52.5534 176.461C52.642 175.766 52.4056 175.147 51.8442 174.603C51.2829 174.06 50.2637 173.566 48.7868 173.121L43.0219 171.46C39.9266 170.556 37.6829 169.381 36.2908 167.934C34.8986 166.486 34.3362 164.714 34.6035 162.616C34.8467 160.708 35.6897 159.097 37.1326 157.785C38.5613 156.471 40.4166 155.52 42.6987 154.933C44.9649 154.357 47.513 154.212 50.3428 154.5C54.6582 154.939 56.6103 155.868 58.9667 157.733C61.3074 159.609 61.2111 161.495 59.7307 164.454L51.7852 163.646C53.2354 162.615 53.9524 161.706 52.9984 160.982C52.0429 160.27 51.2911 159.88 49.6781 159.716C48.0934 159.555 46.3055 159.751 45.2741 160.197C44.227 160.654 43.3755 161.271 43.2503 162.142C43.171 162.876 43.6731 163.776 44.2926 164.312C44.9106 164.862 46.326 165.664 47.7087 166.06L53.2261 167.639C56.3372 168.531 58.5816 169.758 59.9592 171.319C61.3227 172.878 61.866 174.745 61.589 176.919C61.3506 178.789 60.5794 180.343 59.2751 181.58C57.9567 182.815 56.2179 183.695 54.0588 184.218C51.8855 184.739 49.4051 184.858 46.6178 184.575C42.5004 184.156 39.3593 183.05 37.1945 181.255C35.0155 179.459 33.6286 177.456 33.9958 174.574Z" fill="#757575"/>
<path d="M102.701 183.458V60.5596H185.492C184.164 65.6733 183.833 68.7528 183.833 73.4347C183.833 78.1165 184.396 81.499 186.454 87.4803L128.494 80.4575V111.794L172.039 108.549V121.424V134.299L128.494 130.787V164.465L184.904 156.538L185.143 183.458H102.701Z" fill="#757575"/>
<path d="M250.337 152.264L228.059 142.9L216.265 158.116L233.301 156.946L262.132 155.775L250.337 152.264Z" fill="#00A8CC"/>
<path fill-rule="evenodd" clip-rule="evenodd" d="M263.442 115.979H188.744V183.866H269.995V154.605V152.264L228.059 142.9L250.337 152.264L262.132 155.775L250.337 165.139L229.37 181.526L193.986 149.67L229.37 119.491L243.785 131.196L263.442 146.412V115.979Z" fill="#00A8CC"/>
<ellipse cx="227.768" cy="73.921" rx="38.0916" ry="37.9415" fill="#00A8CC"/>
</svg>
