<svg width="22" height="22" viewBox="0 0 22 22" fill="none" xmlns="http://www.w3.org/2000/svg">
<path d="M10.9785 2.0625C12.8625 2.0625 14.6049 2.42916 16.2059 3.16248C17.8069 3.89581 19.0726 4.89298 20.0029 6.15398C20.9333 7.41495 21.3984 8.79042 21.3984 10.2804C21.3984 11.7703 20.9333 13.1477 20.0029 14.4126C19.0726 15.6775 17.8088 16.6766 16.2117 17.4099C14.6146 18.1432 12.8702 18.5099 10.9785 18.5099C10.3816 18.5099 9.76516 18.4672 9.12944 18.3818C6.36939 20.2985 4.90024 21.2685 4.72192 21.2918C4.63663 21.3229 4.5552 21.3189 4.47769 21.2802C4.44666 21.2569 4.42342 21.2258 4.40791 21.187C4.39239 21.1482 4.38466 21.1133 4.38466 21.0823V21.0357C4.4312 20.7331 4.78393 19.4721 5.44294 17.2527C3.94662 16.5078 2.75848 15.5203 1.87853 14.2903C0.998572 13.0604 0.558594 11.7237 0.558594 10.2804C0.558594 8.79042 1.02377 7.41495 1.95412 6.15398C2.88447 4.89298 4.15013 3.89581 5.75111 3.16248C7.35208 2.42916 9.09455 2.0625 10.9785 2.0625Z" fill="black" style="mix-blend-mode:plus-darker"/>
</svg>
