<svg width="57" height="57" viewBox="0 0 57 57" fill="none" xmlns="http://www.w3.org/2000/svg">
<path d="M28.5 57C12.7844 57 0 44.2156 0 28.5C0 12.7844 12.7844 0 28.5 0C44.2156 0 57 12.7844 57 28.5C57 44.2156 44.2156 57 28.5 57ZM28.5 3.8C14.882 3.8 3.8 14.882 3.8 28.5C3.8 42.118 14.882 53.2 28.5 53.2C42.118 53.2 53.2 42.118 53.2 28.5C53.2 14.882 42.118 3.8 28.5 3.8ZM26.0442 37.4443L43.1442 20.3443C43.8876 19.6009 43.8876 18.4015 43.1442 17.6581C42.4008 16.9147 41.2015 16.9147 40.4581 17.6581L24.7024 33.4139L18.4467 27.1581C17.7033 26.4147 16.5039 26.4147 15.7605 27.1581C15.0171 27.9015 15.0171 29.1009 15.7605 29.8443L23.3605 37.4443C23.731 37.8148 24.2179 38 24.7047 38C25.1916 38 25.6785 37.8148 26.049 37.4443H26.0442Z" fill="#00A8CC"/>
</svg>
