<svg width="816" height="335" viewBox="0 0 816 335" fill="none" xmlns="http://www.w3.org/2000/svg">
<path d="M193.108 327.623C184.484 327.623 176.674 325.366 169.676 320.85C162.728 316.284 157.209 309.586 153.119 300.756C149.078 291.875 147.058 280.987 147.058 268.093C147.058 254.847 149.152 243.834 153.341 235.054C157.529 226.223 163.098 219.625 170.046 215.26C177.043 210.845 184.706 208.637 193.034 208.637C199.391 208.637 204.688 209.741 208.926 211.949C213.213 214.106 216.663 216.815 219.275 220.077C221.936 223.288 223.956 226.449 225.336 229.56H226.297L208.926 49L250.464 50.8815V325.742H219.053L226.666 307.228H225.336C223.857 310.439 221.763 313.625 219.053 316.786C216.392 319.897 212.918 322.481 208.63 324.538C204.393 326.595 199.218 327.623 193.108 327.623ZM203.087 302.11C208.162 302.11 212.45 300.705 215.948 297.896C219.496 295.036 222.207 291.047 224.079 285.929C226.001 280.812 226.962 274.816 226.962 267.942C226.962 261.068 226.026 255.098 224.153 250.03C222.28 244.963 219.57 241.049 216.022 238.29C212.474 235.53 208.162 234.15 203.087 234.15C197.913 234.15 193.551 235.58 190.003 238.44C186.455 241.3 183.77 245.264 181.946 250.331C180.123 255.399 179.212 261.269 179.212 267.942C179.212 274.665 180.123 280.611 181.946 285.779C183.819 290.897 186.505 294.91 190.003 297.82C193.551 300.68 197.913 302.11 203.087 302.11Z" fill="#3A3A3A"/>
<path d="M113.724 329.667L122.794 231.449L113.724 209.618H137.699L128.629 231.449L137.699 329.667H113.724ZM125.772 195.242C121.091 195.242 117.075 193.661 113.724 190.5C110.422 187.289 108.771 183.451 108.771 178.986C108.771 174.57 110.422 170.782 113.724 167.621C117.075 164.41 121.091 162.805 125.772 162.805C130.454 162.805 134.445 164.41 137.747 167.621C141.098 170.782 142.773 174.57 142.773 178.986C142.773 183.451 141.098 187.289 137.747 190.5C134.445 193.661 130.454 195.242 125.772 195.242Z" fill="#3A3A3A"/>
<path d="M6.92487 290.009L39.3953 291.954C32.7136 296.749 34.2168 298.349 35.6096 300.53C36.9969 302.761 40.9265 304.251 43.4367 305.754C47.906 306.602 48.7886 306.704 52.4118 307.124C57.259 307.686 61.6652 306.806 65.2287 305.098C68.7865 303.44 70.7577 300.891 71.1422 297.451C71.4487 294.709 70.6307 292.266 68.6882 290.122C66.7456 287.978 63.219 286.029 58.1082 284.276L38.1592 277.722C27.4481 274.158 19.6838 269.521 14.8664 263.812C10.049 258.103 8.10287 251.111 9.02794 242.836C9.86941 235.308 12.7866 228.955 17.7795 223.777C22.7234 218.594 29.1438 214.843 37.0405 212.527C44.8828 210.254 53.7001 209.685 63.4925 210.82C78.4259 212.551 85.1807 216.214 93.3351 223.572C101.435 230.975 101.102 238.414 95.9786 250.084L68.4838 246.898C73.5023 242.832 75.9834 239.247 72.6822 236.39C69.3755 233.583 66.7741 232.042 61.1925 231.395C55.7088 230.76 49.5218 231.535 45.9528 233.292C42.3292 235.094 39.3829 237.531 38.9494 240.965C38.6751 243.862 40.4125 247.41 42.5564 249.527C44.6948 251.694 49.5927 254.859 54.3774 256.423L73.4702 262.65C84.2358 266.17 92.0023 271.009 96.7695 277.167C101.488 283.319 103.368 290.682 102.409 299.256C101.584 306.634 98.9154 312.764 94.4022 317.644C89.84 322.518 83.8231 325.987 76.3515 328.05C68.8308 330.107 60.2478 330.577 50.6023 329.459C36.3544 327.808 25.4849 323.443 17.9937 316.364C10.4535 309.279 5.6543 301.375 6.92487 290.009Z" fill="#3A3A3A"/>
<path d="M275.534 329.247V49.041H441.118C438.462 60.7001 437.801 67.7214 437.801 78.396C437.801 89.0705 438.927 96.7825 443.043 110.42L327.12 94.4078V165.854L414.212 158.455V187.81V217.165L327.12 209.159V285.943L439.943 267.869L440.419 329.247H275.534Z" fill="#00A8CC"/>
<path d="M579.187 257.728L534.63 236.379L511.041 271.071L545.114 268.402L602.776 265.734L579.187 257.728Z" fill="black"/>
<path fill-rule="evenodd" clip-rule="evenodd" d="M605.397 175H456V329.781H618.502V263.065V257.728L534.63 236.379L579.187 257.728L602.776 265.734L579.187 287.083L537.251 324.443L466.484 251.814L537.251 183.006L566.082 209.692L605.397 244.384V175Z" fill="black"/>
<ellipse cx="731.872" cy="85.3963" rx="83.8722" ry="85.3963" fill="#FFD700"/>
</svg>
