<svg width="915" height="670" viewBox="0 0 915 670" fill="none" xmlns="http://www.w3.org/2000/svg">
<g clip-path="url(#clip0_878_27336)">
<path d="M-47.9999 634.083L153.532 335L354.047 470.924C342.445 481.188 336.595 488.14 328.918 499.534C321.24 510.927 317.057 520.083 312.234 538.018L183.372 425.769L131.985 502.029L242.772 565.622L221.659 596.955L200.546 628.287L100.84 548.251L45.6147 630.207L195.237 703.529L151.67 769.434L-47.9999 634.083Z" fill="black"/>
<path d="M517.136 577.451L451.356 606.139L468.088 665.465L497.099 625.3L548.265 559.1L517.136 577.451Z" fill="#00A8CC"/>
<path fill-rule="evenodd" clip-rule="evenodd" d="M449.02 469.135L308.703 634.017L482.202 782.552L634.828 603.207L560.044 539.183L554.061 534.061L451.356 606.139L517.136 577.451L548.265 559.1L550.04 605.622L552.532 687.758L404.653 696.161L393.99 552.027L450.983 545.817L526.796 535.72L449.02 469.135Z" fill="#00A8CC"/>
<ellipse cx="380.5" cy="334.499" rx="95.5" ry="95.7859" fill="#FFD700"/>
<path d="M839.519 719.789L490.234 437.797L672.362 210.854C683.975 226.227 692 234.199 705.306 244.942C718.612 255.684 729.463 261.903 750.99 269.985L603.526 412.751L692.586 484.653L779.156 357.841L815.748 387.383L852.34 416.925L746.566 528.233L842.28 605.506L943.845 432.687L1020.88 493.803L839.519 719.789Z" fill="black"/>
<path d="M524.347 215.545L520.631 182.712L492.672 181.673L506.247 200.031L528.178 231.755L524.347 215.545Z" fill="#00A8CC"/>
<path fill-rule="evenodd" clip-rule="evenodd" d="M580.38 200.999L527.468 116.348L440 171.348L497.554 263.425L535.255 239.718L538.272 237.821L520.631 182.712L524.347 215.545L528.178 231.755L507.759 225.976L471.793 215.49L487.773 149.584L551.72 165.231L546.851 191.05L541.17 225.654L580.38 200.999Z" fill="#00A8CC"/>
<path d="M856.603 58.2256L834.426 69.0951L840.71 89.1529L850.225 74.9341L867.052 51.446L856.603 58.2256Z" fill="#00A8CC"/>
<path fill-rule="evenodd" clip-rule="evenodd" d="M832.306 22.2L786 80.9053L846.659 129.039L897.026 65.1837L870.88 44.4366L868.789 42.7769L834.426 69.0951L856.603 58.2256L867.052 51.446L868.107 67.3544L869.751 95.4514L819.353 100.673L814.321 51.4675L833.716 48.4373L859.497 43.777L832.306 22.2Z" fill="#00A8CC"/>
<ellipse cx="862.5" cy="246.235" rx="59.5" ry="57.6722" fill="#FFD700"/>
<path d="M68.2727 267.83L39.6224 278.452L43.9087 303.588L57.7838 287.407L82.0462 260.808L68.2727 267.83Z" fill="#00A8CC"/>
<path fill-rule="evenodd" clip-rule="evenodd" d="M44.8232 221.159L-20.9629 287.142L44.504 352.804L116.061 281.033L87.8423 252.73L85.5848 250.466L39.6224 278.452L68.2727 267.83L82.0462 260.808L80.6888 280.284L78.0249 314.655L16.1433 315.098L18.2017 254.652L42.1847 253.24L74.1704 250.594L44.8232 221.159Z" fill="#00A8CC"/>
<path d="M371.7 168.742L184.655 275.867L112.835 149.714C121.77 147.28 126.744 145.099 133.869 141.018C140.995 136.937 145.654 133.131 152.972 124.782L192.564 219.221L240.256 191.907L197.542 128.383L217.137 117.16L236.733 105.938L269.163 175.351L320.419 145.996L259.418 66.9497L300.183 43.1213L371.7 168.742Z" fill="black"/>
<ellipse cx="22.8534" cy="85.0133" rx="43.8534" ry="43.8903" fill="#FFD700"/>
<ellipse cx="461.5" cy="29.5883" rx="29.5" ry="29.5883" fill="#FFD700"/>
<path d="M647.564 128.971L655 0L739.628 4.90868C737.961 10.1963 737.437 13.4084 737.154 18.3216C736.871 23.2347 737.241 26.8177 738.983 33.2165L680.161 22.4102L678.265 55.295L722.973 54.4711L722.195 67.9823L721.416 81.4935L677.116 75.2268L675.079 110.568L733.221 105.594L731.836 133.859L647.564 128.971Z" fill="black"/>
<rect width="915" height="670" fill="black" fill-opacity="0.87"/>
<path d="M359.259 302.843C356.39 302.843 353.791 302.183 351.463 300.863C349.151 299.528 347.315 297.57 345.955 294.988C344.61 292.392 343.938 289.208 343.938 285.438C343.938 281.566 344.635 278.346 346.028 275.779C347.422 273.197 349.274 271.268 351.586 269.992C353.914 268.701 356.463 268.056 359.234 268.056C361.349 268.056 363.111 268.378 364.521 269.024C365.948 269.655 367.095 270.447 367.964 271.4C368.849 272.339 369.522 273.263 369.981 274.173H370.3L364.521 221.383L378.341 221.933V302.293H367.89L370.423 296.88H369.981C369.489 297.819 368.792 298.751 367.89 299.675C367.005 300.584 365.849 301.34 364.423 301.941C363.013 302.543 361.292 302.843 359.259 302.843ZM362.578 295.384C364.267 295.384 365.693 294.973 366.857 294.152C368.038 293.316 368.94 292.15 369.563 290.653C370.202 289.157 370.522 287.404 370.522 285.394C370.522 283.385 370.21 281.639 369.587 280.158C368.964 278.676 368.062 277.532 366.882 276.725C365.702 275.918 364.267 275.515 362.578 275.515C360.857 275.515 359.406 275.933 358.226 276.769C357.045 277.605 356.152 278.764 355.545 280.246C354.939 281.727 354.635 283.443 354.635 285.394C354.635 287.36 354.939 289.098 355.545 290.609C356.168 292.106 357.062 293.279 358.226 294.13C359.406 294.966 360.857 295.384 362.578 295.384Z" fill="#BABABA"/>
<path d="M335.839 303.438L338.856 274.723L335.839 268.34H343.815L340.798 274.723L343.815 303.438H335.839ZM339.847 264.137C338.29 264.137 336.954 263.675 335.839 262.751C334.741 261.812 334.191 260.69 334.191 259.384C334.191 258.093 334.741 256.986 335.839 256.062C336.954 255.123 338.29 254.653 339.847 254.653C341.405 254.653 342.733 255.123 343.831 256.062C344.946 256.986 345.504 258.093 345.504 259.384C345.504 260.69 344.946 261.812 343.831 262.751C342.733 263.675 341.405 264.137 339.847 264.137Z" fill="#BABABA"/>
<path d="M303.304 291.846L314.106 292.415C311.883 293.817 312.383 294.284 312.847 294.922C313.308 295.574 314.616 296.01 315.451 296.449C316.938 296.697 317.231 296.727 318.437 296.85C320.049 297.014 321.515 296.757 322.701 296.258C323.885 295.773 324.54 295.028 324.668 294.022C324.77 293.22 324.498 292.506 323.852 291.879C323.205 291.252 322.032 290.683 320.332 290.17L313.695 288.254C310.131 287.212 307.548 285.856 305.946 284.187C304.343 282.518 303.695 280.474 304.003 278.054C304.283 275.853 305.254 273.996 306.915 272.482C308.56 270.967 310.696 269.87 313.323 269.193C315.932 268.528 318.865 268.362 322.123 268.694C327.091 269.2 329.339 270.271 332.052 272.422C334.746 274.586 334.635 276.761 332.931 280.173L323.784 279.242C325.453 278.053 326.279 277.005 325.181 276.17C324.08 275.349 323.215 274.898 321.358 274.709C319.534 274.523 317.475 274.75 316.288 275.264C315.082 275.791 314.102 276.503 313.958 277.507C313.867 278.354 314.445 279.392 315.158 280.01C315.869 280.644 317.499 281.569 319.091 282.027L325.443 283.847C329.024 284.876 331.608 286.291 333.194 288.091C334.764 289.89 335.389 292.043 335.071 294.55C334.796 296.707 333.908 298.499 332.407 299.926C330.889 301.351 328.887 302.365 326.401 302.968C323.899 303.57 321.044 303.707 317.835 303.38C313.095 302.897 309.478 301.621 306.986 299.551C304.478 297.48 302.881 295.169 303.304 291.846Z" fill="#BABABA"/>
<path d="M382.401 302.093V160.35H477.715C476.186 166.247 475.806 169.799 475.806 175.199C475.806 180.599 476.454 184.5 478.823 191.398L412.096 183.299V219.44L462.228 215.697V230.546V245.396L412.096 241.346V280.187L477.039 271.044L477.313 302.093H382.401Z" fill="white"/>
<path d="M552.369 266.115L526.721 255.315L513.143 272.864L532.756 271.514L565.948 270.164L552.369 266.115Z" fill="#00A8CC"/>
<path fill-rule="evenodd" clip-rule="evenodd" d="M567.457 224.267H481.46V302.563H575V268.814V266.115L526.721 255.315L552.369 266.115L565.948 270.164L552.369 280.964L528.23 299.863L487.495 263.123L528.23 228.316L544.826 241.816L567.457 259.365V224.267Z" fill="#00A8CC"/>
<ellipse cx="526.386" cy="175.759" rx="43.8534" ry="43.7592" fill="#FFD700"/>
<path d="M244.409 341.818V351.764H240.522V341.818H244.409ZM251.018 341.818V351.764H247.132V341.818H251.018ZM262.405 341.576H266.365V344.384C266.365 350.684 263.305 356.372 256.897 358.46L254.449 354.716C259.993 352.916 262.405 348.596 262.405 344.384V341.576ZM263.377 341.576H267.301V344.384C267.301 348.344 269.677 352.412 275.113 354.14L272.665 357.848C266.401 355.868 263.377 350.432 263.377 344.384V341.576ZM255.709 340.244H273.853V344.024H255.709V340.244ZM277.201 337.904H282.025V361.952H277.201V337.904ZM259.813 366.812H282.853V370.628H259.813V366.812ZM259.813 359.792H264.601V368.72H259.813V359.792ZM305.494 345.932H311.83V349.82H305.494V345.932ZM310.534 337.868H315.322V357.668H310.534V337.868ZM304.018 358.388C311.074 358.388 315.43 360.8 315.43 364.832C315.43 368.9 311.074 371.24 304.018 371.24C296.962 371.24 292.606 368.9 292.606 364.832C292.606 360.8 296.962 358.388 304.018 358.388ZM304.018 362.024C299.698 362.024 297.394 362.924 297.394 364.832C297.394 366.704 299.698 367.604 304.018 367.604C308.374 367.604 310.678 366.704 310.678 364.832C310.678 362.924 308.374 362.024 304.018 362.024ZM295.126 341.216H299.014V343.304C299.014 349.676 296.062 355.508 289.69 357.668L287.242 353.888C292.75 352.016 295.126 347.588 295.126 343.304V341.216ZM296.134 341.216H299.986V343.304C299.986 347.228 302.254 351.296 307.51 353.06L305.17 356.84C298.978 354.788 296.134 349.244 296.134 343.304V341.216ZM288.538 339.884H306.466V343.7H288.538V339.884ZM335.624 339.524C342.644 339.524 348.08 343.376 348.08 349.172C348.08 355.004 342.644 358.82 335.624 358.82C328.604 358.82 323.168 355.004 323.168 349.172C323.168 343.376 328.604 339.524 335.624 339.524ZM335.624 343.412C331.088 343.412 327.848 345.572 327.848 349.172C327.848 352.736 331.088 354.896 335.624 354.896C340.16 354.896 343.4 352.736 343.4 349.172C343.4 345.572 340.16 343.412 335.624 343.412ZM320.576 363.284H350.744V367.208H320.576V363.284ZM353.693 363.644H383.861V367.532H353.693V363.644ZM366.329 357.344H371.117V365.228H366.329V357.344ZM357.077 340.028H380.477V351.116H361.901V356.732H357.149V347.372H375.725V343.808H357.077V340.028ZM357.149 354.824H381.233V358.676H357.149V354.824ZM395.07 342.872H411.018V346.688H395.07V342.872ZM403.098 348.164C407.346 348.164 410.406 351.44 410.406 356.12C410.406 360.764 407.346 364.04 403.098 364.04C398.886 364.04 395.79 360.764 395.79 356.12C395.79 351.44 398.886 348.164 403.098 348.164ZM403.098 352.16C401.298 352.16 400.038 353.6 400.038 356.12C400.038 358.64 401.298 360.044 403.098 360.044C404.898 360.044 406.194 358.64 406.194 356.12C406.194 353.6 404.898 352.16 403.098 352.16ZM419.19 337.868H423.762V371.204H419.19V337.868ZM415.194 351.404H420.702V355.256H415.194V351.404ZM412.206 338.48H416.67V369.8H412.206V338.48ZM400.758 338.768H405.474V345.284H400.758V338.768ZM428.259 363.464H458.427V367.352H428.259V363.464ZM440.895 356.336H445.683V364.4H440.895V356.336ZM431.427 339.992H436.179V345.104H450.399V339.992H455.151V357.344H431.427V339.992ZM436.179 348.848V353.528H450.399V348.848H436.179ZM464.436 340.676H485.568V344.528H464.436V340.676ZM461.376 363.32H491.508V367.208H461.376V363.32ZM472.032 351.872H476.82V365.228H472.032V351.872ZM483.84 340.676H488.628V343.88C488.628 348.056 488.628 352.736 487.296 359.864L482.508 359.324C483.84 352.7 483.84 347.876 483.84 343.88V340.676ZM525.686 337.904H530.51V356.336H525.686V337.904ZM510.602 339.02H514.562V342.224C514.562 348.38 511.466 353.924 504.95 355.904L502.61 352.16C508.226 350.468 510.602 346.292 510.602 342.224V339.02ZM511.574 339.02H515.498V342.224C515.498 346.184 517.838 350.036 523.274 351.584L520.97 355.364C514.562 353.456 511.574 348.272 511.574 342.224V339.02ZM507.974 357.848H530.654V361.628H507.974V357.848ZM507.65 367.064H530.978V370.844H507.65V367.064ZM511.898 359.252H516.578V369.296H511.898V359.252ZM522.05 359.252H526.766V369.296H522.05V359.252ZM543.791 357.812H547.427V359.072C547.427 364.184 545.195 368.864 539.975 370.772L537.635 367.28C541.991 365.768 543.791 362.384 543.791 359.072V357.812ZM545.015 357.812H548.471V359.072C548.471 362.384 550.055 365.876 554.195 367.604L552.215 371.096C546.923 369.116 545.015 364.04 545.015 359.072V357.812ZM555.959 357.812H559.379V359.072C559.379 363.716 557.435 369.008 552.215 371.096L550.235 367.604C554.339 365.696 555.959 362.06 555.959 359.072V357.812ZM557.075 357.812H560.675V359.072C560.675 362.6 562.439 365.876 566.903 367.28L564.491 370.772C559.235 368.936 557.075 364.4 557.075 359.072V357.812ZM552.143 345.572H560.027V349.46H552.143V345.572ZM545.123 339.56C550.091 339.56 553.907 342.908 553.907 347.552C553.907 352.196 550.091 355.544 545.123 355.544C540.119 355.544 536.339 352.196 536.339 347.552C536.339 342.908 540.119 339.56 545.123 339.56ZM545.123 343.52C542.675 343.52 540.911 345.032 540.911 347.552C540.911 350.072 542.675 351.584 545.123 351.584C547.535 351.584 549.335 350.072 549.335 347.552C549.335 345.032 547.535 343.52 545.123 343.52ZM559.019 337.868H563.807V356.516H559.019V337.868ZM571.004 353.924H573.668C579.608 353.924 583.352 353.744 587.6 352.952L587.996 356.768C583.676 357.56 579.752 357.74 573.668 357.74H571.004V353.924ZM571.004 340.136H586.124V343.952H575.756V354.896H571.004V340.136ZM592.136 337.868H596.924V362.132H592.136V337.868ZM584.216 346.544H593.036V350.324H584.216V346.544ZM574.892 366.884H597.68V370.7H574.892V366.884ZM574.892 360.152H579.716V369.368H574.892V360.152ZM619.869 338.84C624.945 338.84 628.761 342.008 628.761 346.472C628.761 350.9 624.945 354.068 619.869 354.068C614.793 354.068 610.977 350.9 610.977 346.472C610.977 342.008 614.793 338.84 619.869 338.84ZM619.869 342.728C617.421 342.728 615.585 344.096 615.585 346.472C615.585 348.848 617.421 350.216 619.869 350.216C622.317 350.216 624.117 348.848 624.117 346.472C624.117 344.096 622.317 342.728 619.869 342.728ZM633.369 337.868H638.193V354.536H633.369V337.868ZM615.945 355.904H638.193V365.048H620.697V369.08H616.017V361.592H633.441V359.612H615.945V355.904ZM616.017 367.136H639.021V370.844H616.017V367.136ZM666.45 337.832H671.274V371.276H666.45V337.832ZM653.31 340.172C658.35 340.172 662.058 344.78 662.058 352.052C662.058 359.396 658.35 364.004 653.31 364.004C648.27 364.004 644.562 359.396 644.562 352.052C644.562 344.78 648.27 340.172 653.31 340.172ZM653.31 344.528C650.826 344.528 649.134 347.156 649.134 352.052C649.134 357.02 650.826 359.684 653.31 359.684C655.794 359.684 657.45 357.02 657.45 352.052C657.45 347.156 655.794 344.528 653.31 344.528ZM358.456 392.516H388.66V396.332H358.456V392.516ZM371.056 394.964H375.808V407.204H371.056V394.964ZM361.948 375.488H385.06V388.952H361.948V375.488ZM380.344 379.268H366.664V385.172H380.344V379.268ZM414.685 373.868H419.473V396.224H414.685V373.868ZM407.809 382.4H415.693V386.252H407.809V382.4ZM400.789 375.956C405.757 375.956 409.573 379.376 409.573 384.2C409.573 388.988 405.757 392.48 400.789 392.48C395.785 392.48 391.969 388.988 391.969 384.2C391.969 379.376 395.785 375.956 400.789 375.956ZM400.789 380.024C398.341 380.024 396.541 381.572 396.541 384.2C396.541 386.828 398.341 388.412 400.789 388.412C403.201 388.412 405.001 386.828 405.001 384.2C405.001 381.572 403.201 380.024 400.789 380.024ZM405.865 394.208H409.933V395.144C409.933 400.652 405.397 405.872 397.081 407.06L395.353 403.316C402.337 402.308 405.865 398.384 405.865 395.144V394.208ZM406.693 394.208H410.761V395.144C410.761 398.6 414.145 402.344 421.309 403.316L419.509 407.06C411.229 405.836 406.693 400.904 406.693 395.144V394.208ZM447.586 373.904H452.41V397.844H447.586V373.904ZM430.198 402.812H453.238V406.628H430.198V402.812ZM430.198 395.432H434.986V404.36H430.198V395.432ZM434.266 375.992C439.378 375.992 443.302 379.52 443.302 384.452C443.302 389.348 439.378 392.912 434.266 392.912C429.154 392.912 425.194 389.348 425.194 384.452C425.194 379.52 429.154 375.992 434.266 375.992ZM434.266 380.132C431.782 380.132 429.874 381.716 429.874 384.452C429.874 387.152 431.782 388.736 434.266 388.736C436.714 388.736 438.622 387.152 438.622 384.452C438.622 381.716 436.714 380.132 434.266 380.132ZM479.119 373.832H483.943V407.168H479.119V373.832ZM482.683 386.576H488.551V390.5H482.683V386.576ZM470.371 377.288H475.051C475.051 387.296 471.235 395.864 460.147 401.444L457.483 397.808C466.231 393.272 470.371 387.152 470.371 378.116V377.288ZM459.319 377.288H472.819V381.14H459.319V377.288ZM497.584 390.788H502.336V400.148H497.584V390.788ZM509.68 390.788H514.468V400.148H509.68V390.788ZM490.96 399.464H521.128V403.352H490.96V399.464ZM506.008 375.488C513.172 375.488 518.464 379.016 518.464 384.452C518.464 389.888 513.172 393.38 506.008 393.38C498.808 393.38 493.552 389.888 493.552 384.452C493.552 379.016 498.808 375.488 506.008 375.488ZM506.008 379.232C501.364 379.232 498.268 381.14 498.268 384.452C498.268 387.728 501.364 389.672 506.008 389.672C510.652 389.672 513.748 387.728 513.748 384.452C513.748 381.14 510.652 379.232 506.008 379.232ZM529.454 396.151V395.716C529.462 394.224 529.594 393.036 529.85 392.149C530.114 391.263 530.498 390.547 531.001 390.001C531.504 389.456 532.109 388.962 532.816 388.518C533.344 388.178 533.817 387.824 534.235 387.457C534.653 387.091 534.985 386.686 535.232 386.243C535.479 385.791 535.603 385.288 535.603 384.734C535.603 384.146 535.462 383.631 535.181 383.188C534.9 382.744 534.521 382.403 534.043 382.165C533.575 381.926 533.055 381.807 532.484 381.807C531.93 381.807 531.406 381.93 530.911 382.178C530.417 382.416 530.012 382.774 529.697 383.251C529.381 383.72 529.211 384.304 529.185 385.003H523.969C524.012 383.298 524.421 381.892 525.197 380.784C525.972 379.668 526.999 378.837 528.278 378.291C529.556 377.737 530.967 377.46 532.509 377.46C534.205 377.46 535.705 377.741 537.009 378.304C538.313 378.858 539.336 379.663 540.077 380.72C540.819 381.777 541.19 383.051 541.19 384.543C541.19 385.54 541.023 386.426 540.691 387.202C540.367 387.969 539.911 388.651 539.323 389.247C538.735 389.835 538.04 390.368 537.239 390.845C536.566 391.246 536.012 391.663 535.577 392.098C535.151 392.533 534.832 393.036 534.619 393.607C534.414 394.178 534.308 394.881 534.299 395.716V396.151H529.454ZM531.985 404.332C531.133 404.332 530.404 404.034 529.799 403.438C529.202 402.832 528.908 402.108 528.917 401.264C528.908 400.429 529.202 399.713 529.799 399.116C530.404 398.52 531.133 398.222 531.985 398.222C532.795 398.222 533.506 398.52 534.12 399.116C534.734 399.713 535.045 400.429 535.053 401.264C535.045 401.827 534.896 402.342 534.606 402.811C534.325 403.271 533.954 403.642 533.494 403.923C533.033 404.196 532.531 404.332 531.985 404.332ZM548.528 377.818V387.764H544.641V377.818H548.528ZM555.137 377.818V387.764H551.251V377.818H555.137Z" fill="white"/>
<path d="M233.908 437.403L232.369 437.676C232.304 437.479 232.202 437.292 232.062 437.114C231.925 436.936 231.74 436.79 231.505 436.676C231.27 436.562 230.977 436.506 230.624 436.506C230.143 436.506 229.742 436.614 229.42 436.83C229.098 437.042 228.937 437.316 228.937 437.653C228.937 437.945 229.045 438.18 229.261 438.358C229.477 438.536 229.825 438.682 230.306 438.795L231.692 439.114C232.496 439.299 233.094 439.585 233.488 439.972C233.882 440.358 234.079 440.86 234.079 441.477C234.079 442 233.927 442.466 233.624 442.875C233.325 443.28 232.906 443.598 232.369 443.83C231.835 444.061 231.215 444.176 230.511 444.176C229.533 444.176 228.736 443.968 228.119 443.551C227.501 443.131 227.122 442.534 226.982 441.761L228.624 441.511C228.727 441.939 228.937 442.263 229.255 442.483C229.573 442.699 229.988 442.807 230.499 442.807C231.056 442.807 231.501 442.691 231.835 442.46C232.168 442.225 232.335 441.939 232.335 441.602C232.335 441.33 232.232 441.1 232.028 440.915C231.827 440.729 231.518 440.589 231.102 440.494L229.624 440.17C228.81 439.985 228.208 439.689 227.817 439.284C227.431 438.879 227.238 438.366 227.238 437.744C227.238 437.229 227.382 436.778 227.67 436.392C227.958 436.006 228.355 435.705 228.863 435.489C229.371 435.269 229.952 435.159 230.607 435.159C231.55 435.159 232.293 435.364 232.835 435.773C233.376 436.178 233.734 436.722 233.908 437.403ZM235.947 444V435.273H237.646V444H235.947ZM236.805 433.926C236.509 433.926 236.255 433.828 236.043 433.631C235.835 433.43 235.731 433.191 235.731 432.915C235.731 432.634 235.835 432.396 236.043 432.199C236.255 431.998 236.509 431.898 236.805 431.898C237.1 431.898 237.352 431.998 237.56 432.199C237.772 432.396 237.879 432.634 237.879 432.915C237.879 433.191 237.772 433.43 237.56 433.631C237.352 433.828 237.1 433.926 236.805 433.926ZM243.198 444.17C242.494 444.17 241.865 443.991 241.312 443.631C240.763 443.267 240.331 442.75 240.016 442.08C239.706 441.405 239.55 440.597 239.55 439.653C239.55 438.71 239.708 437.903 240.022 437.233C240.34 436.562 240.776 436.049 241.329 435.693C241.882 435.337 242.509 435.159 243.21 435.159C243.751 435.159 244.187 435.25 244.516 435.432C244.85 435.61 245.107 435.818 245.289 436.057C245.475 436.295 245.619 436.506 245.721 436.688H245.823V432.364H247.522V444H245.863V442.642H245.721C245.619 442.828 245.471 443.04 245.278 443.278C245.088 443.517 244.827 443.725 244.494 443.903C244.16 444.081 243.728 444.17 243.198 444.17ZM243.573 442.722C244.062 442.722 244.475 442.593 244.812 442.335C245.153 442.074 245.41 441.712 245.585 441.25C245.763 440.788 245.852 440.25 245.852 439.636C245.852 439.03 245.764 438.5 245.59 438.045C245.416 437.591 245.16 437.237 244.823 436.983C244.486 436.729 244.069 436.602 243.573 436.602C243.062 436.602 242.636 436.735 242.295 437C241.954 437.265 241.696 437.627 241.522 438.085C241.352 438.544 241.266 439.061 241.266 439.636C241.266 440.22 241.353 440.744 241.528 441.21C241.702 441.676 241.96 442.045 242.3 442.318C242.645 442.587 243.069 442.722 243.573 442.722ZM250.083 444V432.364H257.379V433.875H251.839V437.42H256.998V438.926H251.839V442.489H257.447V444H250.083ZM263.246 447.455C262.553 447.455 261.957 447.364 261.457 447.182C260.96 447 260.555 446.759 260.241 446.46C259.926 446.161 259.692 445.833 259.536 445.477L260.996 444.875C261.099 445.042 261.235 445.218 261.406 445.403C261.58 445.593 261.815 445.754 262.11 445.886C262.409 446.019 262.794 446.085 263.263 446.085C263.907 446.085 264.44 445.928 264.86 445.614C265.281 445.303 265.491 444.807 265.491 444.125V442.409H265.383C265.281 442.595 265.133 442.801 264.94 443.028C264.75 443.256 264.489 443.453 264.156 443.619C263.822 443.786 263.388 443.869 262.854 443.869C262.165 443.869 261.544 443.708 260.991 443.386C260.442 443.061 260.006 442.581 259.684 441.949C259.366 441.312 259.207 440.53 259.207 439.602C259.207 438.674 259.364 437.879 259.678 437.216C259.996 436.553 260.432 436.045 260.985 435.693C261.538 435.337 262.165 435.159 262.866 435.159C263.407 435.159 263.845 435.25 264.178 435.432C264.512 435.61 264.771 435.818 264.957 436.057C265.146 436.295 265.292 436.506 265.394 436.688H265.519V435.273H267.184V444.193C267.184 444.943 267.01 445.559 266.661 446.04C266.313 446.521 265.841 446.877 265.246 447.108C264.656 447.339 263.989 447.455 263.246 447.455ZM263.229 442.46C263.718 442.46 264.131 442.347 264.468 442.119C264.809 441.888 265.067 441.559 265.241 441.131C265.419 440.699 265.508 440.182 265.508 439.58C265.508 438.992 265.421 438.475 265.246 438.028C265.072 437.581 264.817 437.233 264.479 436.983C264.142 436.729 263.726 436.602 263.229 436.602C262.718 436.602 262.292 436.735 261.951 437C261.61 437.261 261.353 437.617 261.178 438.068C261.008 438.519 260.923 439.023 260.923 439.58C260.923 440.152 261.01 440.653 261.184 441.085C261.358 441.517 261.616 441.854 261.957 442.097C262.301 442.339 262.726 442.46 263.229 442.46ZM273.138 444.176C272.32 444.176 271.606 443.989 270.996 443.614C270.387 443.239 269.913 442.714 269.576 442.04C269.239 441.366 269.07 440.578 269.07 439.676C269.07 438.771 269.239 437.979 269.576 437.301C269.913 436.623 270.387 436.097 270.996 435.722C271.606 435.347 272.32 435.159 273.138 435.159C273.957 435.159 274.671 435.347 275.281 435.722C275.89 436.097 276.364 436.623 276.701 437.301C277.038 437.979 277.207 438.771 277.207 439.676C277.207 440.578 277.038 441.366 276.701 442.04C276.364 442.714 275.89 443.239 275.281 443.614C274.671 443.989 273.957 444.176 273.138 444.176ZM273.144 442.75C273.674 442.75 274.114 442.61 274.462 442.33C274.811 442.049 275.068 441.676 275.235 441.21C275.406 440.744 275.491 440.231 275.491 439.67C275.491 439.114 275.406 438.602 275.235 438.136C275.068 437.667 274.811 437.29 274.462 437.006C274.114 436.722 273.674 436.58 273.144 436.58C272.61 436.58 272.167 436.722 271.815 437.006C271.466 437.29 271.207 437.667 271.036 438.136C270.87 438.602 270.786 439.114 270.786 439.67C270.786 440.231 270.87 440.744 271.036 441.21C271.207 441.676 271.466 442.049 271.815 442.33C272.167 442.61 272.61 442.75 273.144 442.75ZM284.617 436.4H287.353V437.504H284.617V436.4ZM289.769 430.784H291.049V445.248H289.769V430.784ZM286.905 431.088H288.169V444.528H286.905V431.088ZM282.009 431.984C283.881 431.984 285.097 433.92 285.097 437.024C285.097 440.128 283.881 442.064 282.009 442.064C280.137 442.064 278.937 440.128 278.937 437.024C278.937 433.92 280.137 431.984 282.009 431.984ZM282.009 433.216C280.873 433.216 280.153 434.688 280.153 437.024C280.153 439.36 280.873 440.832 282.009 440.832C283.161 440.832 283.881 439.36 283.881 437.024C283.881 434.688 283.161 433.216 282.009 433.216ZM300.696 435.68H304.728V436.768H300.696V435.68ZM297.208 432.032H298.296V434.608C298.296 437.856 296.584 440.96 294.296 442.192L293.448 441.136C295.576 440.08 297.208 437.296 297.208 434.608V432.032ZM297.464 432.032H298.536V434.608C298.536 437.248 300.168 439.872 302.264 440.864L301.48 441.936C299.144 440.752 297.464 437.776 297.464 434.608V432.032ZM304.072 430.768H305.384V445.264H304.072V430.768ZM309.958 435.12H319.782V436.208H309.958V435.12ZM308.182 438.144H321.302V439.232H308.182V438.144ZM309.958 431.312H311.27V435.664H309.958V431.312ZM309.862 443.808H319.862V444.896H309.862V443.808ZM309.862 440.672H311.174V444.096H309.862V440.672ZM327.158 436V434.909C327.158 434.587 327.219 434.248 327.34 433.892C327.461 433.536 327.63 433.195 327.846 432.869C328.062 432.544 328.316 432.265 328.607 432.034L329.448 432.636C329.217 432.973 329.02 433.326 328.857 433.693C328.694 434.061 328.613 434.46 328.613 434.892V436H327.158ZM330.056 436V434.909C330.056 434.587 330.117 434.248 330.238 433.892C330.359 433.536 330.528 433.195 330.744 432.869C330.96 432.544 331.213 432.265 331.505 432.034L332.346 432.636C332.115 432.973 331.918 433.326 331.755 433.693C331.592 434.061 331.511 434.46 331.511 434.892V436H330.056ZM333.288 432.832H340.376V434.528H333.288V432.832ZM336.856 435.184C338.744 435.184 340.104 436.64 340.104 438.72C340.104 440.784 338.744 442.24 336.856 442.24C334.984 442.24 333.608 440.784 333.608 438.72C333.608 436.64 334.984 435.184 336.856 435.184ZM336.856 436.96C336.056 436.96 335.496 437.6 335.496 438.72C335.496 439.84 336.056 440.464 336.856 440.464C337.656 440.464 338.232 439.84 338.232 438.72C338.232 437.6 337.656 436.96 336.856 436.96ZM344.008 430.608H346.04V445.424H344.008V430.608ZM342.232 436.624H344.68V438.336H342.232V436.624ZM340.904 430.88H342.888V444.8H340.904V430.88ZM335.816 431.008H337.912V433.904H335.816V431.008ZM351.991 431.632C354.247 431.632 355.879 433.68 355.879 436.912C355.879 440.176 354.247 442.224 351.991 442.224C349.735 442.224 348.103 440.176 348.103 436.912C348.103 433.68 349.735 431.632 351.991 431.632ZM351.991 433.568C350.887 433.568 350.151 434.736 350.151 436.912C350.151 439.12 350.887 440.304 351.991 440.304C353.095 440.304 353.847 439.12 353.847 436.912C353.847 434.736 353.095 433.568 351.991 433.568ZM359.063 434.048H361.671V435.808H359.063V434.048ZM359.063 438.4H361.671V440.144H359.063V438.4ZM357.495 430.608H359.639V445.424H357.495V430.608ZM377.053 430.624H379.069V439.728H377.053V430.624ZM375.245 434.4H377.613V436.112H375.245V434.4ZM373.997 430.816H375.981V439.584H373.997V430.816ZM366.381 432.032H373.565V433.68H366.381V432.032ZM369.997 434.128C371.853 434.128 373.197 435.184 373.197 436.72C373.197 438.256 371.853 439.312 369.997 439.312C368.141 439.312 366.797 438.256 366.797 436.72C366.797 435.184 368.141 434.128 369.997 434.128ZM369.997 435.664C369.213 435.664 368.685 436.032 368.685 436.72C368.685 437.408 369.213 437.792 369.997 437.792C370.765 437.792 371.293 437.408 371.293 436.72C371.293 436.032 370.765 435.664 369.997 435.664ZM368.925 430.704H371.021V433.2H368.925V430.704ZM370.013 440.208H371.613V440.496C371.613 442.592 370.589 444.496 368.253 445.248L367.277 443.68C369.181 443.12 370.013 441.792 370.013 440.496V440.208ZM370.573 440.208H372.093V440.496C372.093 441.808 372.797 443.168 374.573 443.824L373.725 445.392C371.421 444.592 370.573 442.528 370.573 440.496V440.208ZM375.357 440.208H376.877V440.496C376.877 442.4 376.013 444.56 373.725 445.392L372.893 443.824C374.621 443.104 375.357 441.696 375.357 440.496V440.208ZM375.885 440.208H377.469V440.496C377.469 441.872 378.285 443.168 380.221 443.68L379.229 445.248C376.861 444.528 375.885 442.672 375.885 440.496V440.208ZM382.043 437.744H383.227C385.867 437.744 387.531 437.664 389.419 437.312L389.595 439.008C387.675 439.36 385.931 439.44 383.227 439.44H382.043V437.744ZM382.043 431.616H388.763V433.312H384.155V438.176H382.043V431.616ZM391.435 430.608H393.563V441.392H391.435V430.608ZM387.915 434.464H391.835V436.144H387.915V434.464ZM383.771 443.504H393.899V445.2H383.771V443.504ZM383.771 440.512H385.915V444.608H383.771V440.512ZM403.761 431.04C406.017 431.04 407.713 432.448 407.713 434.432C407.713 436.4 406.017 437.808 403.761 437.808C401.505 437.808 399.809 436.4 399.809 434.432C399.809 432.448 401.505 431.04 403.761 431.04ZM403.761 432.768C402.673 432.768 401.857 433.376 401.857 434.432C401.857 435.488 402.673 436.096 403.761 436.096C404.849 436.096 405.649 435.488 405.649 434.432C405.649 433.376 404.849 432.768 403.761 432.768ZM409.761 430.608H411.905V438.016H409.761V430.608ZM402.017 438.624H411.905V442.688H404.129V444.48H402.049V441.152H409.793V440.272H402.017V438.624ZM402.049 443.616H412.273V445.264H402.049V443.616ZM416.658 432.364V433.591C416.658 433.939 416.59 434.295 416.454 434.659C416.321 435.019 416.143 435.36 415.92 435.682C415.696 436 415.452 436.271 415.187 436.494L414.119 435.864C414.308 435.564 414.475 435.233 414.619 434.869C414.766 434.506 414.84 434.083 414.84 433.602V432.364H416.658ZM419.516 432.364V433.591C419.516 433.939 419.448 434.295 419.312 434.659C419.179 435.019 419.001 435.36 418.778 435.682C418.554 436 418.308 436.271 418.039 436.494L416.971 435.864C417.164 435.564 417.333 435.233 417.477 434.869C417.624 434.506 417.698 434.083 417.698 433.602V432.364H419.516ZM431.694 430.768H433.022V445.264H431.694V430.768ZM425.39 431.888C427.534 431.888 429.07 433.856 429.07 436.928C429.07 440.016 427.534 441.984 425.39 441.984C423.262 441.984 421.726 440.016 421.726 436.928C421.726 433.856 423.262 431.888 425.39 431.888ZM425.39 433.088C423.982 433.088 422.99 434.592 422.99 436.928C422.99 439.28 423.982 440.816 425.39 440.816C426.814 440.816 427.79 439.28 427.79 436.928C427.79 434.592 426.814 433.088 425.39 433.088ZM443.992 431.888C446.12 431.888 447.624 433.856 447.624 436.928C447.624 440.016 446.12 441.984 443.992 441.984C441.864 441.984 440.36 440.016 440.36 436.928C440.36 433.856 441.864 431.888 443.992 431.888ZM443.992 433.088C442.584 433.088 441.624 434.592 441.624 436.928C441.624 439.28 442.584 440.816 443.992 440.816C445.384 440.816 446.36 439.28 446.36 436.928C446.36 434.592 445.384 433.088 443.992 433.088ZM449.928 430.784H451.272V445.248H449.928V430.784ZM450.952 436.56H453.64V437.68H450.952V436.56ZM465.382 430.784H466.726V441.296H465.382V430.784ZM457.286 443.84H467.158V444.928H457.286V443.84ZM457.286 440.224H458.614V444.32H457.286V440.224ZM455.766 431.856H457.094V437.904H455.766V431.856ZM455.766 437.424H456.934C459.478 437.424 461.574 437.264 463.83 436.768L464.006 437.888C461.654 438.368 459.542 438.544 456.934 438.544H455.766V437.424ZM574.836 431.024C578.02 431.024 579.924 431.92 579.924 433.536C579.924 435.152 578.02 436.048 574.836 436.048C571.636 436.048 569.748 435.152 569.748 433.536C569.748 431.92 571.636 431.024 574.836 431.024ZM574.836 432.032C572.468 432.032 571.108 432.576 571.108 433.536C571.108 434.496 572.468 435.04 574.836 435.04C577.188 435.04 578.548 434.496 578.548 433.536C578.548 432.576 577.188 432.032 574.836 432.032ZM568.292 437.008H581.364V438.08H568.292V437.008ZM569.876 439.312H579.7V442.576H571.22V444.336H569.908V441.616H578.388V440.336H569.876V439.312ZM569.908 444.048H580.132V445.088H569.908V444.048ZM597.149 430.736H598.477V438.72H597.149V430.736ZM597.917 434.208H600.621V435.328H597.917V434.208ZM589.293 439.456H598.477V442.688H590.637V444.448H589.325V441.728H597.181V440.464H589.293V439.456ZM589.325 444.064H599.005V445.088H589.325V444.064ZM587.293 432.08H595.837V433.12H587.293V432.08ZM591.565 433.76C593.645 433.76 595.021 434.672 595.021 436.144C595.021 437.6 593.645 438.496 591.565 438.496C589.453 438.496 588.093 437.6 588.093 436.144C588.093 434.672 589.453 433.76 591.565 433.76ZM591.565 434.736C590.221 434.736 589.357 435.28 589.357 436.144C589.357 436.992 590.221 437.536 591.565 437.536C592.893 437.536 593.757 436.992 593.757 436.144C593.757 435.28 592.893 434.736 591.565 434.736ZM590.893 430.624H592.221V432.8H590.893V430.624ZM612.054 431.296H613.222V432.096C613.222 434.864 610.406 436.848 607.398 437.36L606.87 436.288C609.51 435.888 612.054 434.16 612.054 432.096V431.296ZM612.294 431.296H613.446V432.096C613.446 434.112 616.022 435.888 618.63 436.288L618.102 437.36C615.126 436.848 612.294 434.832 612.294 432.096V431.296ZM612.054 439.744H613.366V445.248H612.054V439.744ZM606.214 438.928H619.286V440.032H606.214V438.928ZM628.767 439.68H629.791V440.464C629.791 442.352 628.607 444.256 626.527 445.056L625.855 444.064C627.679 443.408 628.767 441.856 628.767 440.464V439.68ZM629.055 439.68H630.047V440.464C630.047 441.92 630.911 443.472 632.639 444.176L632.079 445.184C629.999 444.368 629.055 442.384 629.055 440.464V439.68ZM634.111 439.68H635.103V440.464C635.103 442.16 634.143 444.304 632.079 445.184L631.519 444.176C633.231 443.392 634.111 441.712 634.111 440.464V439.68ZM634.383 439.68H635.407V440.464C635.407 441.952 636.479 443.44 638.319 444.064L637.647 445.056C635.535 444.288 634.383 442.464 634.383 440.464V439.68ZM635.679 430.8H637.023V439.056H635.679V430.8ZM629.263 431.632C631.455 431.632 633.023 433.008 633.023 435.008C633.023 437.008 631.455 438.368 629.263 438.368C627.071 438.368 625.487 437.008 625.487 435.008C625.487 433.008 627.071 431.632 629.263 431.632ZM629.263 432.736C627.823 432.736 626.783 433.664 626.783 435.008C626.783 436.352 627.823 437.264 629.263 437.264C630.703 437.264 631.743 436.352 631.743 435.008C631.743 433.664 630.703 432.736 629.263 432.736ZM641.534 439.456H642.846V441.136H649.918V439.456H651.246V445.056H641.534V439.456ZM642.846 442.16V443.984H649.918V442.16H642.846ZM639.87 437.376H652.942V438.448H639.87V437.376ZM645.742 430.944H646.878V431.584C646.878 434.096 644.078 435.904 641.102 436.352L640.622 435.312C643.23 434.96 645.742 433.408 645.742 431.584V430.944ZM645.95 430.944H647.086V431.584C647.086 433.376 649.63 434.96 652.206 435.312L651.71 436.352C648.766 435.904 645.95 434.064 645.95 431.584V430.944ZM665.117 430.784H666.445V445.248H665.117V430.784ZM655.517 432.192H656.829V441.152H655.517V432.192ZM655.517 440.368H656.701C658.893 440.368 661.181 440.208 663.629 439.696L663.789 440.832C661.277 441.344 658.989 441.52 656.701 441.52H655.517V440.368ZM679.099 430.768H680.443V445.264H679.099V430.768ZM680.123 436.48H682.811V437.6H680.123V436.48ZM669.931 440.544H671.067C673.739 440.544 675.611 440.448 677.771 440.048L677.915 441.168C675.691 441.584 673.787 441.664 671.067 441.664H669.931V440.544ZM669.931 432.176H676.651V433.264H671.243V441.04H669.931V432.176ZM685.504 444.108C685.193 444.108 684.926 443.998 684.702 443.778C684.479 443.555 684.367 443.286 684.367 442.972C684.367 442.661 684.479 442.396 684.702 442.176C684.926 441.953 685.193 441.841 685.504 441.841C685.814 441.841 686.081 441.953 686.305 442.176C686.528 442.396 686.64 442.661 686.64 442.972C686.64 443.18 686.587 443.371 686.481 443.545C686.379 443.716 686.242 443.852 686.072 443.955C685.901 444.057 685.712 444.108 685.504 444.108ZM254.519 462.368H267.623V463.472H254.519V462.368ZM260.375 459.264H261.703V462.832H260.375V459.264ZM256.103 451.856H266.007V456.24H257.463V459.136H256.151V455.168H264.695V452.928H256.103V451.856ZM256.151 458.576H266.343V459.664H256.151V458.576ZM270.646 452.32H279.958V453.392H270.646V452.32ZM269.238 462.032H282.31V463.136H269.238V462.032ZM279.254 452.32H280.55V453.76C280.55 455.616 280.55 457.68 280.006 460.8L278.678 460.672C279.254 457.712 279.254 455.552 279.254 453.76V452.32ZM294.468 450.8H295.812V461.36H294.468V450.8ZM286.516 463.84H296.244V464.928H286.516V463.84ZM286.516 460.272H287.828V464.208H286.516V460.272ZM288.052 451.792C290.212 451.792 291.812 453.264 291.812 455.36C291.812 457.44 290.212 458.928 288.052 458.928C285.892 458.928 284.276 457.44 284.276 455.36C284.276 453.264 285.892 451.792 288.052 451.792ZM288.052 452.944C286.644 452.944 285.572 453.936 285.572 455.36C285.572 456.768 286.644 457.76 288.052 457.76C289.46 457.76 290.532 456.768 290.532 455.36C290.532 453.936 289.46 452.944 288.052 452.944ZM303.581 452.432H315.213V453.504H303.581V452.432ZM302.909 460.16H316.013V461.248H302.909V460.16ZM308.765 461.04H310.093V465.264H308.765V461.04ZM309.437 454.336C312.381 454.336 314.125 455.2 314.125 456.752C314.125 458.288 312.381 459.168 309.437 459.168C306.477 459.168 304.733 458.288 304.733 456.752C304.733 455.2 306.477 454.336 309.437 454.336ZM309.437 455.36C307.325 455.36 306.109 455.856 306.109 456.752C306.109 457.648 307.325 458.144 309.437 458.144C311.549 458.144 312.765 457.648 312.765 456.752C312.765 455.856 311.549 455.36 309.437 455.36ZM308.765 450.704H310.093V453.152H308.765V450.704ZM320.18 462.409L320.095 463.028C320.038 463.483 319.942 463.956 319.805 464.449C319.673 464.945 319.535 465.405 319.391 465.83C319.25 466.254 319.135 466.591 319.044 466.841H317.839C317.889 466.606 317.957 466.288 318.044 465.886C318.131 465.489 318.216 465.044 318.3 464.551C318.383 464.059 318.446 463.557 318.487 463.045L318.544 462.409H320.18ZM336.172 450.784H337.5V459.488H336.172V450.784ZM337.132 454.624H339.644V455.728H337.132V454.624ZM328.412 460.304H337.5V465.056H328.412V460.304ZM336.204 461.376H329.708V463.984H336.204V461.376ZM326.316 452.304H334.86V453.392H326.316V452.304ZM330.588 454.096C332.652 454.096 334.044 455.12 334.044 456.688C334.044 458.256 332.652 459.248 330.588 459.248C328.508 459.248 327.116 458.256 327.116 456.688C327.116 455.12 328.508 454.096 330.588 454.096ZM330.588 455.12C329.26 455.12 328.38 455.728 328.38 456.688C328.38 457.632 329.26 458.24 330.588 458.24C331.884 458.24 332.78 457.632 332.78 456.688C332.78 455.728 331.884 455.12 330.588 455.12ZM329.916 450.656H331.244V452.864H329.916V450.656ZM343.419 452.512H344.539C344.539 455.616 344.123 459.024 342.059 461.84L341.019 461.232C343.003 458.656 343.419 455.632 343.419 452.608V452.512ZM341.323 452.512H344.075V453.616H341.323V452.512ZM346.603 452.512H347.739C347.739 455.568 347.547 459.632 345.275 462.768L344.219 462.16C346.427 459.28 346.603 455.52 346.603 452.624V452.512ZM345.019 452.512H347.307V453.616H345.019V452.512ZM352.059 450.784H353.339V465.248H352.059V450.784ZM347.067 456.464H349.659V457.552H347.067V456.464ZM349.387 451.152H350.635V464.512H349.387V451.152ZM365.61 450.736H366.938V458.72H365.61V450.736ZM366.378 454.208H369.082V455.328H366.378V454.208ZM357.754 459.456H366.938V462.688H359.098V464.448H357.786V461.728H365.642V460.464H357.754V459.456ZM357.786 464.064H367.466V465.088H357.786V464.064ZM355.754 452.08H364.298V453.12H355.754V452.08ZM360.026 453.76C362.106 453.76 363.482 454.672 363.482 456.144C363.482 457.6 362.106 458.496 360.026 458.496C357.914 458.496 356.554 457.6 356.554 456.144C356.554 454.672 357.914 453.76 360.026 453.76ZM360.026 454.736C358.682 454.736 357.818 455.28 357.818 456.144C357.818 456.992 358.682 457.536 360.026 457.536C361.354 457.536 362.218 456.992 362.218 456.144C362.218 455.28 361.354 454.736 360.026 454.736ZM359.354 450.624H360.682V452.8H359.354V450.624ZM374.675 457.904H387.747V458.992H374.675V457.904ZM380.547 455.584H381.859V458.352H380.547V455.584ZM376.323 455.168H386.227V456.256H376.323V455.168ZM376.323 451.44H386.115V452.512H377.635V455.808H376.323V451.44ZM381.187 460.032C384.275 460.032 386.147 460.976 386.147 462.624C386.147 464.304 384.275 465.232 381.187 465.232C378.099 465.232 376.227 464.304 376.227 462.624C376.227 460.976 378.099 460.032 381.187 460.032ZM381.187 461.056C378.931 461.056 377.571 461.632 377.571 462.624C377.571 463.632 378.931 464.192 381.187 464.192C383.459 464.192 384.803 463.632 384.803 462.624C384.803 461.632 383.459 461.056 381.187 461.056ZM393.042 459.264H394.354V462.816H393.042V459.264ZM397.666 459.232H398.962V462.8H397.666V459.232ZM389.394 462.368H402.498V463.472H389.394V462.368ZM390.978 451.856H400.882V456.224H392.338V459.136H391.026V455.168H399.57V452.928H390.978V451.856ZM391.026 458.544H401.218V459.632H391.026V458.544ZM404.097 457.504H417.217V458.512H404.097V457.504ZM405.649 459.68H415.569V462.768H407.009V464.464H405.697V461.856H414.273V460.624H405.649V459.68ZM405.697 464.112H416.033V465.072H405.697V464.112ZM405.761 451.2H415.521V454.208H407.105V455.776H405.793V453.312H414.225V452.144H405.761V451.2ZM405.793 455.456H415.793V456.416H405.793V455.456ZM426.666 453.168H427.754V453.792C427.754 456.256 426.122 458.256 423.69 459.024L423.066 457.984C425.21 457.328 426.666 455.68 426.666 453.792V453.168ZM426.906 453.168H427.994V453.792C427.994 455.52 429.402 457.088 431.53 457.712L430.906 458.736C428.49 458.016 426.906 456.096 426.906 453.792V453.168ZM423.466 452.464H431.178V453.536H423.466V452.464ZM426.666 450.72H427.994V452.912H426.666V450.72ZM432.954 450.784H434.282V459.184H432.954V450.784ZM433.914 454.352H436.426V455.456H433.914V454.352ZM429.098 460.384H430.234V460.768C430.234 463.04 427.834 464.72 425.002 465.2L424.49 464.176C426.986 463.792 429.098 462.384 429.098 460.768V460.384ZM429.354 460.384H430.49V460.768C430.49 462.352 432.634 463.792 435.082 464.192L434.586 465.216C431.754 464.736 429.354 462.992 429.354 460.768V460.384ZM425.05 459.968H434.538V461.04H425.05V459.968ZM439.16 452.224H448.472V453.328H439.16V452.224ZM437.784 462.128H450.856V463.232H437.784V462.128ZM442.856 456.96H444.184V462.672H442.856V456.96ZM447.976 452.224H449.288V453.664C449.288 455.456 449.288 457.44 448.76 460.368L447.432 460.192C447.976 457.424 447.976 455.392 447.976 453.664V452.224ZM460.082 459.728H461.442V465.248H460.082V459.728ZM465.058 459.728H466.418V465.248H465.058V459.728ZM456.722 459.008H469.842V460.112H456.722V459.008ZM463.25 451.36C466.274 451.36 468.306 452.576 468.306 454.512C468.306 456.432 466.274 457.664 463.25 457.664C460.242 457.664 458.194 456.432 458.194 454.512C458.194 452.576 460.242 451.36 463.25 451.36ZM463.25 452.432C461.042 452.432 459.538 453.248 459.538 454.512C459.538 455.776 461.042 456.592 463.25 456.592C465.458 456.592 466.946 455.776 466.946 454.512C466.946 453.248 465.458 452.432 463.25 452.432ZM474.672 455.68H475.984V458.416H474.672V455.68ZM479.984 455.68H481.296V458.416H479.984V455.68ZM471.44 457.936H484.512V459.008H471.44V457.936ZM477.968 460.096C481.072 460.096 482.928 461.008 482.928 462.656C482.928 464.304 481.072 465.232 477.968 465.232C474.864 465.232 473.008 464.304 473.008 462.656C473.008 461.008 474.864 460.096 477.968 460.096ZM477.968 461.12C475.712 461.12 474.352 461.68 474.352 462.656C474.352 463.648 475.712 464.192 477.968 464.192C480.24 464.192 481.584 463.648 481.584 462.656C481.584 461.68 480.24 461.12 477.968 461.12ZM477.984 451.04C481.12 451.04 483.072 452.048 483.072 453.744C483.072 455.424 481.12 456.416 477.984 456.416C474.832 456.416 472.896 455.424 472.896 453.744C472.896 452.048 474.832 451.04 477.984 451.04ZM477.984 452.08C475.68 452.08 474.256 452.688 474.256 453.744C474.256 454.784 475.68 455.392 477.984 455.392C480.288 455.392 481.712 454.784 481.712 453.744C481.712 452.688 480.288 452.08 477.984 452.08ZM496.063 450.8H497.391V461.648H496.063V450.8ZM496.975 455.536H499.535V456.656H496.975V455.536ZM486.207 452.544H494.751V453.616H486.207V452.544ZM490.479 454.416C492.527 454.416 493.935 455.488 493.935 457.12C493.935 458.736 492.527 459.808 490.479 459.808C488.415 459.808 487.007 458.736 487.007 457.12C487.007 455.488 488.415 454.416 490.479 454.416ZM490.479 455.456C489.167 455.456 488.271 456.112 488.271 457.12C488.271 458.112 489.167 458.768 490.479 458.768C491.775 458.768 492.671 458.112 492.671 457.12C492.671 456.112 491.775 455.456 490.479 455.456ZM489.807 450.784H491.135V453.104H489.807V450.784ZM488.383 463.84H498.047V464.928H488.383V463.84ZM488.383 460.784H489.711V464.304H488.383V460.784ZM515.624 450.768H516.952V465.264H515.624V450.768ZM505.944 452H507.256V455.824H511.432V452H512.76V461.776H505.944V452ZM507.256 456.88V460.688H511.432V456.88H507.256ZM520.551 451.52H521.863V453.744H525.783V451.52H527.079V458.144H520.551V451.52ZM521.863 454.784V457.056H525.783V454.784H521.863ZM526.711 454.336H530.807V455.424H526.711V454.336ZM530.407 450.784H531.735V458.688H530.407V450.784ZM522.471 459.392H523.783V461.136H530.423V459.392H531.735V465.056H522.471V459.392ZM523.783 462.192V463.968H530.423V462.192H523.783ZM541.782 455.68H545.814V456.768H541.782V455.68ZM538.294 452.032H539.382V454.608C539.382 457.856 537.67 460.96 535.382 462.192L534.534 461.136C536.662 460.08 538.294 457.296 538.294 454.608V452.032ZM538.55 452.032H539.622V454.608C539.622 457.248 541.254 459.872 543.35 460.864L542.566 461.936C540.23 460.752 538.55 457.776 538.55 454.608V452.032ZM545.158 450.768H546.47V465.264H545.158V450.768ZM550.932 457.536H560.868V458.624H550.932V457.536ZM549.284 462.32H562.388V463.44H549.284V462.32ZM555.14 458H556.468V462.768H555.14V458ZM550.932 451.936H560.724V453.024H552.26V458.016H550.932V451.936ZM572.014 457.568H573.342V459.424H572.014V457.568ZM578.11 450.8H579.438V460.496H578.11V450.8ZM578.878 455.168H581.55V456.272H578.878V455.168ZM568.318 460.08L568.142 458.992C570.734 458.992 574.254 458.992 577.246 458.56L577.358 459.504C574.27 460.048 570.846 460.064 568.318 460.08ZM569.934 461.216H579.438V465.248H578.11V462.272H569.934V461.216ZM568.51 452.096H576.814V453.088H568.51V452.096ZM572.67 453.648C574.702 453.648 576.03 454.464 576.03 455.792C576.03 457.12 574.702 457.936 572.67 457.936C570.622 457.936 569.294 457.12 569.294 455.792C569.294 454.464 570.622 453.648 572.67 453.648ZM572.67 454.56C571.374 454.56 570.542 455.024 570.542 455.792C570.542 456.528 571.374 457.008 572.67 457.008C573.95 457.008 574.782 456.528 574.782 455.792C574.782 455.024 573.95 454.56 572.67 454.56ZM572.014 450.672H573.342V452.576H572.014V450.672ZM593.468 450.8H594.812V461.36H593.468V450.8ZM585.516 463.84H595.244V464.928H585.516V463.84ZM585.516 460.272H586.828V464.208H585.516V460.272ZM587.052 451.792C589.212 451.792 590.812 453.264 590.812 455.36C590.812 457.44 589.212 458.928 587.052 458.928C584.892 458.928 583.276 457.44 583.276 455.36C583.276 453.264 584.892 451.792 587.052 451.792ZM587.052 452.944C585.644 452.944 584.572 453.936 584.572 455.36C584.572 456.768 585.644 457.76 587.052 457.76C588.46 457.76 589.532 456.768 589.532 455.36C589.532 453.936 588.46 452.944 587.052 452.944ZM597.643 453.248H604.811V454.336H597.643V453.248ZM601.227 455.296C603.035 455.296 604.347 456.656 604.347 458.608C604.347 460.544 603.035 461.904 601.227 461.904C599.435 461.904 598.123 460.544 598.123 458.608C598.123 456.656 599.435 455.296 601.227 455.296ZM601.227 456.432C600.123 456.432 599.323 457.328 599.323 458.608C599.323 459.888 600.123 460.784 601.227 460.784C602.347 460.784 603.163 459.888 603.163 458.608C603.163 457.328 602.347 456.432 601.227 456.432ZM608.635 450.784H609.915V465.248H608.635V450.784ZM606.331 456.864H609.067V457.968H606.331V456.864ZM605.547 451.104H606.795V464.544H605.547V451.104ZM600.587 451.2H601.899V453.92H600.587V451.2ZM612.394 462.304H625.498V463.408H612.394V462.304ZM618.25 458.848H619.578V462.624H618.25V458.848ZM613.93 451.808H615.242V454.384H622.618V451.808H623.93V459.2H613.93V451.808ZM615.242 455.456V458.112H622.618V455.456H615.242ZM632.809 455.952H635.577V457.056H632.809V455.952ZM630.105 452.144H631.145V454.896C631.145 457.92 629.881 460.848 627.769 462.144L626.937 461.136C628.921 459.968 630.105 457.376 630.105 454.896V452.144ZM630.361 452.144H631.385V454.848C631.385 457.168 632.473 459.632 634.377 460.784L633.609 461.824C631.529 460.544 630.361 457.664 630.361 454.848V452.144ZM638.121 450.784H639.401V465.248H638.121V450.784ZM635.193 451.088H636.441V464.528H635.193V451.088ZM645.031 458.224H646.343V462.56H645.031V458.224ZM650.375 458.224H651.703V462.56H650.375V458.224ZM641.831 462.304H654.935V463.408H641.831V462.304ZM648.359 451.696C651.415 451.696 653.607 453.152 653.607 455.424C653.607 457.68 651.415 459.136 648.359 459.136C645.287 459.136 643.095 457.68 643.095 455.424C643.095 453.152 645.287 451.696 648.359 451.696ZM648.359 452.752C646.039 452.752 644.375 453.808 644.375 455.424C644.375 457.024 646.039 458.08 648.359 458.08C650.679 458.08 652.327 457.024 652.327 455.424C652.327 453.808 650.679 452.752 648.359 452.752ZM658.011 464.108C657.701 464.108 657.434 463.998 657.21 463.778C656.987 463.555 656.875 463.286 656.875 462.972C656.875 462.661 656.987 462.396 657.21 462.176C657.434 461.953 657.701 461.841 658.011 461.841C658.322 461.841 658.589 461.953 658.812 462.176C659.036 462.396 659.148 462.661 659.148 462.972C659.148 463.18 659.095 463.371 658.989 463.545C658.886 463.716 658.75 463.852 658.58 463.955C658.409 464.057 658.22 464.108 658.011 464.108Z" fill="white"/>
<path d="M473.904 436V434.773C473.904 434.424 473.972 434.068 474.109 433.705C474.245 433.341 474.425 432.998 474.648 432.676C474.872 432.354 475.114 432.085 475.376 431.869L476.444 432.5C476.232 432.833 476.058 433.182 475.921 433.545C475.789 433.909 475.722 434.314 475.722 434.761V436H473.904ZM476.773 436V434.773C476.773 434.424 476.842 434.068 476.978 433.705C477.114 433.341 477.294 432.998 477.518 432.676C477.741 432.354 477.984 432.085 478.245 431.869L479.313 432.5C479.101 432.833 478.927 433.182 478.79 433.545C478.658 433.909 478.592 434.314 478.592 434.761V436H476.773ZM489.917 430.608H492.029V445.424H489.917V430.608ZM491.549 436.384H494.173V438.16H491.549V436.384ZM480.349 432.8H488.973V434.496H480.349V432.8ZM484.685 435.328C486.845 435.328 488.445 436.8 488.445 438.864C488.445 440.928 486.845 442.4 484.685 442.4C482.525 442.4 480.925 440.928 480.925 438.864C480.925 436.8 482.525 435.328 484.685 435.328ZM484.685 437.056C483.677 437.056 482.957 437.728 482.957 438.864C482.957 440 483.677 440.672 484.685 440.672C485.693 440.672 486.413 440 486.413 438.864C486.413 437.728 485.693 437.056 484.685 437.056ZM483.613 430.848H485.741V433.44H483.613V430.848ZM496.508 431.856H505.9V433.568H496.508V431.856ZM495.148 441.92H508.54V443.648H495.148V441.92ZM499.884 436.832H502.012V442.768H499.884V436.832ZM505.132 431.856H507.26V433.28C507.26 435.136 507.26 437.216 506.668 440.384L504.54 440.144C505.132 437.2 505.132 435.056 505.132 433.28V431.856ZM523.73 430.624H525.874V438.816H523.73V430.624ZM517.026 431.12H518.786V432.544C518.786 435.28 517.41 437.744 514.514 438.624L513.474 436.96C515.97 436.208 517.026 434.352 517.026 432.544V431.12ZM517.458 431.12H519.202V432.544C519.202 434.304 520.242 436.016 522.658 436.704L521.634 438.384C518.786 437.536 517.458 435.232 517.458 432.544V431.12ZM515.858 439.488H525.938V441.168H515.858V439.488ZM515.714 443.584H526.082V445.264H515.714V443.584ZM517.602 440.112H519.682V444.576H517.602V440.112ZM522.114 440.112H524.21V444.576H522.114V440.112ZM529.153 437.744H530.337C532.977 437.744 534.641 437.664 536.529 437.312L536.705 439.008C534.785 439.36 533.041 439.44 530.337 439.44H529.153V437.744ZM529.153 431.616H535.873V433.312H531.265V438.176H529.153V431.616ZM538.545 430.608H540.673V441.392H538.545V430.608ZM535.025 434.464H538.945V436.144H535.025V434.464ZM530.881 443.504H541.009V445.2H530.881V443.504ZM530.881 440.512H533.025V444.608H530.881V440.512ZM550.871 431.04C553.127 431.04 554.823 432.448 554.823 434.432C554.823 436.4 553.127 437.808 550.871 437.808C548.615 437.808 546.919 436.4 546.919 434.432C546.919 432.448 548.615 431.04 550.871 431.04ZM550.871 432.768C549.783 432.768 548.967 433.376 548.967 434.432C548.967 435.488 549.783 436.096 550.871 436.096C551.959 436.096 552.759 435.488 552.759 434.432C552.759 433.376 551.959 432.768 550.871 432.768ZM556.871 430.608H559.015V438.016H556.871V430.608ZM549.127 438.624H559.015V442.688H551.239V444.48H549.159V441.152H556.903V440.272H549.127V438.624ZM549.159 443.616H559.383V445.264H549.159V443.616ZM563.768 432.364V433.591C563.768 433.939 563.7 434.295 563.563 434.659C563.431 435.019 563.253 435.36 563.029 435.682C562.806 436 562.561 436.271 562.296 436.494L561.228 435.864C561.417 435.564 561.584 435.233 561.728 434.869C561.876 434.506 561.95 434.083 561.95 433.602V432.364H563.768ZM566.626 432.364V433.591C566.626 433.939 566.558 434.295 566.421 434.659C566.289 435.019 566.111 435.36 565.887 435.682C565.664 436 565.417 436.271 565.148 436.494L564.08 435.864C564.273 435.564 564.442 435.233 564.586 434.869C564.734 434.506 564.808 434.083 564.808 433.602V432.364H566.626Z" fill="#00A8CC"/>
</g>
<defs>
<clipPath id="clip0_878_27336">
<rect width="915" height="670" fill="white"/>
</clipPath>
</defs>
</svg>
