<svg width="274" height="173" viewBox="0 0 274 173" fill="none" xmlns="http://www.w3.org/2000/svg">
<path d="M58.2586 170.843C55.3896 170.843 52.7911 170.183 50.463 168.863C48.1514 167.528 46.3152 165.57 44.9545 162.988C43.6102 160.392 42.938 157.208 42.938 153.438C42.938 149.566 43.6348 146.346 45.0283 143.779C46.4218 141.197 48.2744 139.268 50.586 137.992C52.914 136.701 55.4633 136.056 58.234 136.056C60.3489 136.056 62.1113 136.378 63.5212 137.024C64.9475 137.655 66.0951 138.447 66.964 139.4C67.8493 140.339 68.5215 141.263 68.9806 142.173H69.3003L63.5212 89.3828L77.3407 89.9329V170.293H66.8903L69.4232 164.88H68.9806C68.4887 165.819 67.792 166.751 66.8903 167.675C66.005 168.584 64.8492 169.34 63.4228 169.941C62.0129 170.543 60.2915 170.843 58.2586 170.843ZM61.5785 163.384C63.2671 163.384 64.6934 162.973 65.8574 162.152C67.0378 161.316 67.9395 160.15 68.5625 158.653C69.2019 157.157 69.5216 155.404 69.5216 153.394C69.5216 151.385 69.2101 149.639 68.5871 148.158C67.9641 146.676 67.0624 145.532 65.882 144.725C64.7016 143.918 63.2671 143.515 61.5785 143.515C59.8571 143.515 58.4061 143.933 57.2257 144.769C56.0453 145.605 55.1519 146.764 54.5453 148.246C53.9387 149.727 53.6354 151.443 53.6354 153.394C53.6354 155.36 53.9387 157.098 54.5453 158.609C55.1682 160.106 56.0617 161.279 57.2257 162.13C58.4061 162.966 59.8571 163.384 61.5785 163.384Z" fill="#3A3A3A"/>
<path d="M34.8391 171.438L37.8565 142.723L34.8391 136.34H42.8153L39.7979 142.723L42.8153 171.438H34.8391ZM38.8475 132.137C37.29 132.137 35.9539 131.675 34.8391 130.751C33.7406 129.812 33.1914 128.69 33.1914 127.384C33.1914 126.093 33.7406 124.986 34.8391 124.062C35.9539 123.123 37.29 122.653 38.8475 122.653C40.405 122.653 41.7329 123.123 42.8313 124.062C43.9462 124.986 44.5036 126.093 44.5036 127.384C44.5036 128.69 43.9462 129.812 42.8313 130.751C41.7329 131.675 40.405 132.137 38.8475 132.137Z" fill="#3A3A3A"/>
<path d="M2.30356 159.846L13.1062 160.415C10.8833 161.817 11.3834 162.284 11.8468 162.922C12.3083 163.574 13.6157 164.01 14.4508 164.449C15.9377 164.697 16.2313 164.727 17.4367 164.85C19.0494 165.014 20.5153 164.757 21.7008 164.258C22.8845 163.773 23.5403 163.028 23.6682 162.022C23.7702 161.22 23.498 160.506 22.8518 159.879C22.2055 159.252 21.0322 158.683 19.3319 158.17L12.695 156.254C9.13149 155.212 6.54838 153.856 4.94567 152.187C3.34295 150.518 2.69548 148.474 3.00324 146.054C3.28319 143.853 4.25371 141.996 5.91482 140.482C7.55963 138.967 9.69563 137.87 12.3228 137.193C14.9319 136.528 17.8654 136.362 21.1232 136.694C26.0914 137.2 28.3387 138.271 31.0516 140.422C33.7464 142.586 33.6355 144.761 31.9311 148.173L22.7838 147.242C24.4534 146.053 25.2788 145.005 24.1806 144.17C23.0805 143.349 22.215 142.898 20.358 142.709C18.5336 142.523 16.4753 142.75 15.2879 143.264C14.0823 143.791 13.1021 144.503 12.9579 145.507C12.8667 146.354 13.4446 147.392 14.1579 148.01C14.8694 148.644 16.4988 149.569 18.0907 150.027L24.4427 151.847C28.0244 152.876 30.6082 154.291 32.1942 156.091C33.764 157.89 34.3894 160.043 34.0705 162.55C33.7961 164.707 32.9082 166.499 31.4067 167.926C29.8888 169.351 27.8871 170.365 25.4013 170.968C22.8992 171.57 20.0437 171.707 16.8347 171.38C12.0946 170.897 8.47834 169.621 5.98607 167.551C3.47752 165.48 1.88085 163.169 2.30356 159.846Z" fill="#3A3A3A"/>
<path d="M81.4014 170.093V28.3496H176.715C175.186 34.2474 174.806 37.7992 174.806 43.1989C174.806 48.5986 175.454 52.4998 177.823 59.3981L111.096 51.2985V87.44L161.228 83.697V98.5463V113.396L111.096 109.346V148.187L176.039 139.044L176.313 170.093H81.4014Z" fill="black"/>
<path d="M251.369 134.115L225.721 123.315L212.143 140.864L231.756 139.514L264.948 138.164L251.369 134.115Z" fill="#00A8CC"/>
<path fill-rule="evenodd" clip-rule="evenodd" d="M266.457 92.2666H180.46V170.563H274V136.814V134.115L225.721 123.315L251.369 134.115L264.948 138.164L251.369 148.964L227.23 167.863L186.495 131.123L227.23 96.3164L243.826 109.816L266.457 127.365V92.2666Z" fill="#00A8CC"/>
<ellipse cx="225.386" cy="43.7592" rx="43.8534" ry="43.7592" fill="#FFD700"/>
</svg>
