<svg width="18" height="18" viewBox="0 0 18 18" fill="none" xmlns="http://www.w3.org/2000/svg">
<path d="M8.15258 5.46749L2.75708 11.6336C2.12033 12.3615 2.63783 13.5 3.60421 13.5H14.3952C14.6115 13.5002 14.8232 13.438 15.0051 13.321C15.1869 13.2039 15.3312 13.0369 15.4206 12.84C15.51 12.643 15.5407 12.4245 15.5091 12.2105C15.4775 11.9966 15.3849 11.7963 15.2423 11.6336L9.84683 5.46862C9.74124 5.34778 9.61102 5.25094 9.46491 5.18458C9.3188 5.11822 9.16018 5.08389 8.99971 5.08389C8.83924 5.08389 8.68062 5.11822 8.53451 5.18458C8.3884 5.25094 8.25818 5.34666 8.15258 5.46749Z" fill="black"/>
</svg>
