<svg width="37" height="34" viewBox="0 0 37 34" fill="none" xmlns="http://www.w3.org/2000/svg">
<path d="M0 33.8518V5.88379H18.3106C18.017 7.04751 17.9439 7.74832 17.9439 8.81377C17.9439 9.87922 18.0683 10.649 18.5236 12.0101L5.70453 10.4119V17.5432L15.3354 16.8046V19.7346V22.6646L5.70453 21.8655V29.5294L18.1807 27.7255L18.2334 33.8518H0Z" fill="black"/>
<path d="M32.6524 26.7533L27.7252 24.6224L25.1166 28.0851L28.8845 27.8188L35.2609 27.5524L32.6524 26.7533Z" fill="#00A8CC"/>
<path fill-rule="evenodd" clip-rule="evenodd" d="M35.5508 18.4961H19.03V33.9451H37V27.286V26.7533L27.7252 24.6224L32.6524 26.7533L35.2609 27.5524L32.6524 29.6833L28.015 33.4124L20.1894 26.1631L28.015 19.2952L31.2032 21.9588L35.5508 25.4215V18.4961Z" fill="#00A8CC"/>
<ellipse cx="27.6607" cy="8.92437" rx="8.42464" ry="8.63433" fill="#FFD700"/>
</svg>
