<svg width="301" height="223" viewBox="0 0 301 223" fill="none" xmlns="http://www.w3.org/2000/svg">
<rect width="221.79" height="300.004" transform="matrix(-0.00140358 0.999999 -0.999999 -0.00137523 300.315 0.743164)" fill="white"/>
<path d="M82.5989 182.571C80.1069 182.571 77.8498 182.004 75.8276 180.871C73.8197 179.725 72.2248 178.045 71.0428 175.829C69.8751 173.6 69.2913 170.868 69.2913 167.633C69.2913 164.309 69.8965 161.546 71.1069 159.343C72.3174 157.127 73.9265 155.471 75.9344 154.376C77.9566 153.268 80.171 152.714 82.5776 152.714C84.4146 152.714 85.9454 152.991 87.1701 153.545C88.409 154.086 89.4059 154.766 90.1606 155.585C90.9296 156.39 91.5134 157.183 91.9122 157.964H92.1899L87.1701 112.657L99.1739 113.129V182.099H90.0965L92.2967 177.453H91.9122C91.485 178.259 90.8798 179.058 90.0965 179.851C89.3276 180.632 88.3236 181.28 87.0847 181.796C85.86 182.313 84.3648 182.571 82.5989 182.571ZM85.4826 176.169C86.9494 176.169 88.1883 175.816 89.1994 175.111C90.2247 174.394 91.0079 173.393 91.5491 172.109C92.1044 170.824 92.3821 169.32 92.3821 167.595C92.3821 165.87 92.1116 164.372 91.5704 163.101C91.0293 161.829 90.2461 160.847 89.2207 160.155C88.1954 159.462 86.9494 159.116 85.4826 159.116C83.9874 159.116 82.7271 159.475 81.7018 160.192C80.6765 160.91 79.9004 161.905 79.3735 163.176C78.8466 164.448 78.5831 165.921 78.5831 167.595C78.5831 169.282 78.8466 170.774 79.3735 172.071C79.9146 173.355 80.6907 174.362 81.7018 175.092C82.7271 175.81 83.9874 176.169 85.4826 176.169Z" fill="#757575"/>
<path d="M62.2566 183.082L64.8776 158.437L62.2566 152.959H69.1849L66.5639 158.437L69.1849 183.082H62.2566ZM65.7384 149.351C64.3855 149.351 63.225 148.955 62.2566 148.161C61.3025 147.356 60.8254 146.393 60.8254 145.272C60.8254 144.164 61.3025 143.214 62.2566 142.421C63.225 141.615 64.3855 141.212 65.7384 141.212C67.0912 141.212 68.2447 141.615 69.1988 142.421C70.1672 143.214 70.6513 144.164 70.6513 145.272C70.6513 146.393 70.1672 147.356 69.1988 148.161C68.2447 148.955 67.0912 149.351 65.7384 149.351Z" fill="#757575"/>
<path d="M33.996 173.132L43.3794 173.62C41.4485 174.823 41.8829 175.224 42.2854 175.772C42.6863 176.331 43.8219 176.705 44.5473 177.082C45.8388 177.295 46.0939 177.321 47.1409 177.426C48.5417 177.567 49.815 177.346 50.8447 176.918C51.8729 176.502 52.4425 175.862 52.5537 174.999C52.6422 174.311 52.4058 173.698 51.8445 173.16C51.2831 172.622 50.264 172.133 48.7871 171.693L43.0222 170.048C39.9269 169.154 37.6831 167.991 36.291 166.558C34.8989 165.126 34.3365 163.371 34.6038 161.295C34.847 159.406 35.69 157.812 37.1328 156.512C38.5615 155.212 40.4169 154.271 42.6989 153.689C44.9652 153.119 47.5132 152.976 50.343 153.261C54.6585 153.695 56.6105 154.615 58.967 156.461C61.3077 158.318 61.2113 160.185 59.7309 163.113L51.7854 162.314C53.2357 161.294 53.9527 160.394 52.9987 159.677C52.0431 158.973 51.2914 158.586 49.6784 158.424C48.0937 158.264 46.3058 158.459 45.2744 158.9C44.2272 159.352 43.3758 159.964 43.2505 160.825C43.1713 161.552 43.6733 162.442 44.2929 162.974C44.9109 163.517 46.3262 164.312 47.7089 164.704L53.2264 166.267C56.3375 167.15 58.5818 168.364 59.9595 169.909C61.323 171.453 61.8662 173.3 61.5892 175.452C61.3509 177.303 60.5796 178.841 59.2754 180.066C57.957 181.289 56.2182 182.159 54.059 182.677C51.8857 183.193 49.4054 183.311 46.618 183.031C42.5006 182.616 39.3595 181.521 37.1947 179.745C35.0157 177.967 33.6289 175.984 33.996 173.132Z" fill="#757575"/>
<path d="M102.701 181.926V60.2754H185.492C184.164 65.3372 183.834 68.3855 183.834 73.0198C183.834 77.6541 184.396 81.0022 186.455 86.9228L128.494 79.9713V110.99L172.039 107.777V120.522V133.266L128.494 129.79V163.126L184.904 155.279L185.143 181.926H102.701Z" fill="#00A8CC"/>
<path d="M250.337 151.049L228.059 141.78L216.265 156.842L233.301 155.683L262.132 154.525L250.337 151.049Z" fill="#00A8CC"/>
<path fill-rule="evenodd" clip-rule="evenodd" d="M263.442 115.133H188.745V182.331H269.995V153.366V151.049L228.059 141.78L250.337 151.049L262.132 154.525L250.337 163.793L229.37 180.013L193.986 148.481L229.37 118.609L243.785 130.194L263.442 145.256V115.133Z" fill="#00A8CC"/>
<ellipse cx="227.768" cy="73.5007" rx="38.0916" ry="37.5564" fill="#00A8CC"/>
<rect width="221.79" height="300.004" transform="matrix(-0.00140358 0.999999 -0.999999 -0.00137523 300.315 0.743164)" fill="white"/>
<path d="M82.5989 182.571C80.1069 182.571 77.8498 182.004 75.8276 180.871C73.8197 179.725 72.2248 178.045 71.0428 175.829C69.8751 173.6 69.2913 170.868 69.2913 167.633C69.2913 164.309 69.8965 161.546 71.1069 159.343C72.3174 157.127 73.9265 155.471 75.9344 154.376C77.9566 153.268 80.171 152.714 82.5776 152.714C84.4146 152.714 85.9454 152.991 87.1701 153.545C88.409 154.086 89.4059 154.766 90.1606 155.585C90.9296 156.39 91.5134 157.183 91.9122 157.964H92.1899L87.1701 112.657L99.1739 113.129V182.099H90.0965L92.2967 177.453H91.9122C91.485 178.259 90.8798 179.058 90.0965 179.851C89.3276 180.632 88.3236 181.28 87.0847 181.796C85.86 182.313 84.3648 182.571 82.5989 182.571ZM85.4826 176.169C86.9494 176.169 88.1883 175.816 89.1994 175.111C90.2247 174.394 91.0079 173.393 91.5491 172.109C92.1044 170.824 92.3821 169.32 92.3821 167.595C92.3821 165.87 92.1116 164.372 91.5704 163.101C91.0293 161.829 90.2461 160.847 89.2207 160.155C88.1954 159.462 86.9494 159.116 85.4826 159.116C83.9874 159.116 82.7271 159.475 81.7018 160.192C80.6765 160.91 79.9004 161.905 79.3735 163.176C78.8466 164.448 78.5831 165.921 78.5831 167.595C78.5831 169.282 78.8466 170.774 79.3735 172.071C79.9146 173.355 80.6907 174.362 81.7018 175.092C82.7271 175.81 83.9874 176.169 85.4826 176.169Z" fill="#757575"/>
<path d="M62.2566 183.082L64.8776 158.437L62.2566 152.959H69.1849L66.5639 158.437L69.1849 183.082H62.2566ZM65.7384 149.351C64.3855 149.351 63.225 148.955 62.2566 148.161C61.3025 147.356 60.8254 146.393 60.8254 145.272C60.8254 144.164 61.3025 143.214 62.2566 142.421C63.225 141.615 64.3855 141.212 65.7384 141.212C67.0912 141.212 68.2447 141.615 69.1988 142.421C70.1672 143.214 70.6513 144.164 70.6513 145.272C70.6513 146.393 70.1672 147.356 69.1988 148.161C68.2447 148.955 67.0912 149.351 65.7384 149.351Z" fill="#757575"/>
<path d="M33.996 173.132L43.3794 173.62C41.4485 174.823 41.8829 175.224 42.2854 175.772C42.6863 176.331 43.8219 176.705 44.5473 177.082C45.8388 177.295 46.0939 177.321 47.1409 177.426C48.5417 177.567 49.815 177.346 50.8447 176.918C51.8729 176.502 52.4425 175.862 52.5537 174.999C52.6422 174.311 52.4058 173.698 51.8445 173.16C51.2831 172.622 50.264 172.133 48.7871 171.693L43.0222 170.048C39.9269 169.154 37.6831 167.991 36.291 166.558C34.8989 165.126 34.3365 163.371 34.6038 161.295C34.847 159.406 35.69 157.812 37.1328 156.512C38.5615 155.212 40.4169 154.271 42.6989 153.689C44.9652 153.119 47.5132 152.976 50.343 153.261C54.6585 153.695 56.6105 154.615 58.967 156.461C61.3077 158.318 61.2113 160.185 59.7309 163.113L51.7854 162.314C53.2357 161.294 53.9527 160.394 52.9987 159.677C52.0431 158.973 51.2914 158.586 49.6784 158.424C48.0937 158.264 46.3058 158.459 45.2744 158.9C44.2272 159.352 43.3758 159.964 43.2505 160.825C43.1713 161.552 43.6733 162.442 44.2929 162.974C44.9109 163.517 46.3262 164.312 47.7089 164.704L53.2264 166.267C56.3375 167.15 58.5818 168.364 59.9595 169.909C61.323 171.453 61.8662 173.3 61.5892 175.452C61.3509 177.303 60.5796 178.841 59.2754 180.066C57.957 181.289 56.2182 182.159 54.059 182.677C51.8857 183.193 49.4054 183.311 46.618 183.031C42.5006 182.616 39.3595 181.521 37.1947 179.745C35.0157 177.967 33.6289 175.984 33.996 173.132Z" fill="#757575"/>
<path d="M102.701 181.926V60.2754H185.492C184.164 65.3372 183.834 68.3855 183.834 73.0198C183.834 77.6541 184.396 81.0022 186.455 86.9228L128.494 79.9713V110.99L172.039 107.777V120.522V133.266L128.494 129.79V163.126L184.904 155.279L185.143 181.926H102.701Z" fill="#00A8CC"/>
<path d="M250.337 151.049L228.059 141.78L216.265 156.842L233.301 155.683L262.132 154.525L250.337 151.049Z" fill="#00A8CC"/>
<path fill-rule="evenodd" clip-rule="evenodd" d="M263.442 115.133H188.745V182.331H269.995V153.366V151.049L228.059 141.78L250.337 151.049L262.132 154.525L250.337 163.793L229.37 180.013L193.986 148.481L229.37 118.609L243.785 130.194L263.442 145.256V115.133Z" fill="#00A8CC"/>
<ellipse cx="227.768" cy="73.5007" rx="38.0916" ry="37.5564" fill="#00A8CC"/>
</svg>
